<?xml version="1.0" encoding="utf-8"?>
<!-- Generator: Adobe Illustrator 23.0.5, SVG Export Plug-In . SVG Version: 6.00 Build 0)  -->
<svg version="1.1" xmlns="http://www.w3.org/2000/svg" xmlns:xlink="http://www.w3.org/1999/xlink" x="0px" y="0px"
	 viewBox="0 0 1500 1500" style="enable-background:new 0 0 1500 1500;" xml:space="preserve">
<style type="text/css">
	.st0{fill:url(#SVGID_1_);}
	.st1{fill:url(#SVGID_2_);}
	.st2{fill:url(#SVGID_3_);}
	.st3{fill:url(#SVGID_4_);}
	.st4{fill:url(#SVGID_5_);}
	.st5{fill:url(#SVGID_6_);}
	.st6{fill:#FFFFFF;}
	.st7{fill:#FFF328;}
	.st8{fill:url(#SVGID_7_);}
	.st9{fill:url(#SVGID_8_);}
	.st10{fill:#F5F668;}
	.st11{fill:#FFF327;}
	.st12{fill:url(#SVGID_9_);}
	.st13{fill:url(#SVGID_10_);}
	.st14{fill:url(#SVGID_11_);}
	.st15{fill:url(#SVGID_12_);}
	.st16{fill:url(#SVGID_13_);}
	.st17{fill:url(#SVGID_14_);}
	.st18{fill:url(#SVGID_15_);}
	.st19{fill:url(#SVGID_16_);}
	.st20{fill:url(#SVGID_17_);}
	.st21{fill:url(#SVGID_18_);}
	.st22{fill:url(#SVGID_19_);}
	.st23{fill:none;stroke:#F09F0B;stroke-width:101;stroke-linecap:round;stroke-miterlimit:10;}
	.st24{fill:none;stroke:#FFFFFF;stroke-width:101;stroke-linecap:round;stroke-miterlimit:10;}
</style>
<g id="Слой_2">
	<linearGradient id="SVGID_1_" gradientUnits="userSpaceOnUse" x1="68.3333" y1="750" x2="1431.6666" y2="750">
		<stop  offset="0" style="stop-color:#F6B500"/>
		<stop  offset="0.0539" style="stop-color:#F7B900"/>
		<stop  offset="0.3677" style="stop-color:#FBCD00"/>
		<stop  offset="0.683" style="stop-color:#FED900"/>
		<stop  offset="1" style="stop-color:#FFDD00"/>
	</linearGradient>
	<circle class="st0" cx="750" cy="750" r="681.67"/>
	<linearGradient id="SVGID_2_" gradientUnits="userSpaceOnUse" x1="162.5556" y1="750" x2="1337.4445" y2="750">
		<stop  offset="0" style="stop-color:#FFDD00"/>
		<stop  offset="0.317" style="stop-color:#FED900"/>
		<stop  offset="0.6323" style="stop-color:#FBCD00"/>
		<stop  offset="0.9461" style="stop-color:#F7B900"/>
		<stop  offset="1" style="stop-color:#F6B500"/>
	</linearGradient>
	<circle class="st1" cx="750" cy="750" r="587.44"/>
</g>
<g id="Слой_4">
	<linearGradient id="SVGID_3_" gradientUnits="userSpaceOnUse" x1="487.7778" y1="424.5555" x2="593.1111" y2="424.5555">
		<stop  offset="0" style="stop-color:#FFFFFF"/>
		<stop  offset="1" style="stop-color:#FFF440"/>
	</linearGradient>
	<path class="st2" d="M540.44,371.89c-29.09,0-52.67,23.58-52.67,52.67s23.58,52.67,52.67,52.67c29.09,0,52.67-23.58,52.67-52.67
		S569.53,371.89,540.44,371.89z M540.44,472.11c-26.26,0-47.56-21.29-47.56-47.56S514.18,377,540.44,377S588,398.29,588,424.56
		S566.71,472.11,540.44,472.11z"/>
	<linearGradient id="SVGID_4_" gradientUnits="userSpaceOnUse" x1="766.2037" y1="355.9934" x2="660.8704" y2="355.9934">
		<stop  offset="0" style="stop-color:#FFFFFF"/>
		<stop  offset="1" style="stop-color:#FFF440"/>
	</linearGradient>
	<path class="st3" d="M713.54,303.33c-29.09,0-52.67,23.58-52.67,52.67s23.58,52.67,52.67,52.67c29.09,0,52.67-23.58,52.67-52.67
		S742.62,303.33,713.54,303.33z M713.54,403.55c-26.26,0-47.56-21.29-47.56-47.56s21.29-47.56,47.56-47.56s47.56,21.29,47.56,47.56
		S739.8,403.55,713.54,403.55z"/>
	<linearGradient id="SVGID_5_" gradientUnits="userSpaceOnUse" x1="382.4445" y1="612.0984" x2="487.7778" y2="612.0984">
		<stop  offset="0" style="stop-color:#FFF440"/>
		<stop  offset="1" style="stop-color:#FFFFFF"/>
	</linearGradient>
	<path class="st4" d="M435.11,559.43c-29.09,0-52.67,23.58-52.67,52.67s23.58,52.67,52.67,52.67c29.09,0,52.67-23.58,52.67-52.67
		S464.2,559.43,435.11,559.43z M435.11,659.65c-26.26,0-47.56-21.29-47.56-47.56s21.29-47.56,47.56-47.56s47.56,21.29,47.56,47.56
		S461.38,659.65,435.11,659.65z"/>
	<linearGradient id="SVGID_6_" gradientUnits="userSpaceOnUse" x1="641.7879" y1="635.1697" x2="747.1212" y2="635.1697">
		<stop  offset="0" style="stop-color:#FFF42A"/>
		<stop  offset="1" style="stop-color:#FFFFBD"/>
	</linearGradient>
	<path class="st5" d="M694.45,582.5c-29.09,0-52.67,23.58-52.67,52.67s23.58,52.67,52.67,52.67c29.09,0,52.67-23.58,52.67-52.67
		S723.54,582.5,694.45,582.5z M694.45,682.73c-26.26,0-47.56-21.29-47.56-47.56s21.29-47.56,47.56-47.56s47.56,21.29,47.56,47.56
		S720.72,682.73,694.45,682.73z"/>
	<path class="st6" d="M661.96,798.17c-29.09,0-52.67,23.58-52.67,52.67s23.58,52.67,52.67,52.67c29.09,0,52.67-23.58,52.67-52.67
		S691.05,798.17,661.96,798.17z M661.96,898.39c-26.26,0-47.56-21.29-47.56-47.56s21.29-47.56,47.56-47.56s47.56,21.29,47.56,47.56
		S688.23,898.39,661.96,898.39z"/>
	<path class="st7" d="M567.7,1069.33c-29.09,0-52.67,23.58-52.67,52.67c0,29.09,23.58,52.67,52.67,52.67
		c29.09,0,52.67-23.58,52.67-52.67C620.36,1092.91,596.78,1069.33,567.7,1069.33z M567.7,1169.56c-26.26,0-47.56-21.29-47.56-47.56
		c0-26.26,21.29-47.56,47.56-47.56s47.56,21.29,47.56,47.56C615.25,1148.26,593.96,1169.56,567.7,1169.56z"/>
	<linearGradient id="SVGID_7_" gradientUnits="userSpaceOnUse" x1="775.3492" y1="1212.928" x2="880.6825" y2="1212.928">
		<stop  offset="0" style="stop-color:#FFFFBD"/>
		<stop  offset="1" style="stop-color:#FFF42A"/>
	</linearGradient>
	<path class="st8" d="M828.02,1160.26c-29.09,0-52.67,23.58-52.67,52.67c0,29.09,23.58,52.67,52.67,52.67
		c29.09,0,52.67-23.58,52.67-52.67C880.68,1183.84,857.1,1160.26,828.02,1160.26z M828.02,1260.48c-26.26,0-47.56-21.29-47.56-47.56
		c0-26.26,21.29-47.56,47.56-47.56s47.56,21.29,47.56,47.56C875.57,1239.19,854.28,1260.48,828.02,1260.48z"/>
	<linearGradient id="SVGID_8_" gradientUnits="userSpaceOnUse" x1="1169.7722" y1="638.2194" x2="1275.1056" y2="638.2194">
		<stop  offset="0" style="stop-color:#FFFF6D"/>
		<stop  offset="0.0322" style="stop-color:#FFFF69"/>
		<stop  offset="0.2725" style="stop-color:#FFFC4D"/>
		<stop  offset="0.5143" style="stop-color:#FFFA39"/>
		<stop  offset="0.7565" style="stop-color:#FFF82D"/>
		<stop  offset="1" style="stop-color:#FFF829"/>
	</linearGradient>
	<path class="st9" d="M1222.44,585.55c-29.09,0-52.67,23.58-52.67,52.67s23.58,52.67,52.67,52.67c29.09,0,52.67-23.58,52.67-52.67
		S1251.53,585.55,1222.44,585.55z M1222.44,685.77c-26.26,0-47.56-21.29-47.56-47.56s21.29-47.56,47.56-47.56
		c26.26,0,47.56,21.29,47.56,47.56S1248.7,685.77,1222.44,685.77z"/>
	<path class="st10" d="M960.87,285.29c-29.09,0-52.67,23.58-52.67,52.67s23.58,52.67,52.67,52.67c29.09,0,52.67-23.58,52.67-52.67
		S989.95,285.29,960.87,285.29z M960.87,385.51c-26.26,0-47.56-21.29-47.56-47.56s21.29-47.56,47.56-47.56s47.56,21.29,47.56,47.56
		S987.13,385.51,960.87,385.51z"/>
	<path class="st11" d="M459.33,892.13c-29.09,0-52.67,23.58-52.67,52.67s23.58,52.67,52.67,52.67c29.09,0,52.67-23.58,52.67-52.67
		S488.42,892.13,459.33,892.13z M459.33,992.35c-26.26,0-47.56-21.29-47.56-47.56s21.29-47.56,47.56-47.56s47.56,21.29,47.56,47.56
		S485.6,992.35,459.33,992.35z"/>
	<linearGradient id="SVGID_9_" gradientUnits="userSpaceOnUse" x1="679" y1="310.1111" x2="679" y2="69.8423">
		<stop  offset="0" style="stop-color:#FFF76C"/>
		<stop  offset="1" style="stop-color:#FFFFFF"/>
	</linearGradient>
	<polygon class="st12" points="704.32,69.84 647.44,213.22 689.22,310.11 693.67,307.89 653.34,212.58 710.56,69.84 	"/>
	<linearGradient id="SVGID_10_" gradientUnits="userSpaceOnUse" x1="353.3844" y1="371.7698" x2="375.2143" y2="333.9593">
		<stop  offset="0.2969" style="stop-color:#FFF700"/>
		<stop  offset="1" style="stop-color:#FFFFFF"/>
	</linearGradient>
	<polygon class="st13" points="239.12,298.69 492.89,401.9 490.57,407.58 234.98,303.41 	"/>
	<linearGradient id="SVGID_11_" gradientUnits="userSpaceOnUse" x1="77.0816" y1="594.2719" x2="387.5556" y2="594.2719">
		<stop  offset="0" style="stop-color:#FFF700"/>
		<stop  offset="0.6146" style="stop-color:#FFFFFF"/>
		<stop  offset="1" style="stop-color:#FFF824"/>
	</linearGradient>
	<polygon class="st14" points="387.56,592.48 277.22,548.04 78.38,632.77 77.08,640.51 277.52,554.26 385.96,597.81 	"/>
	<linearGradient id="SVGID_12_" gradientUnits="userSpaceOnUse" x1="81.099" y1="818.032" x2="403" y2="818.032">
		<stop  offset="0" style="stop-color:#FFF700"/>
		<stop  offset="0.0548" style="stop-color:#FFF703"/>
		<stop  offset="0.0924" style="stop-color:#FFF70C"/>
		<stop  offset="0.125" style="stop-color:#FFF81B"/>
		<stop  offset="0.1546" style="stop-color:#FFF931"/>
		<stop  offset="0.1822" style="stop-color:#FFF94D"/>
		<stop  offset="0.2084" style="stop-color:#FFFA70"/>
		<stop  offset="0.2335" style="stop-color:#FFFC99"/>
		<stop  offset="0.2574" style="stop-color:#FFFDC8"/>
		<stop  offset="0.28" style="stop-color:#FFFFFC"/>
		<stop  offset="0.2813" style="stop-color:#FFFFFF"/>
		<stop  offset="0.2886" style="stop-color:#FFFEEA"/>
		<stop  offset="0.305" style="stop-color:#FFFDC1"/>
		<stop  offset="0.3233" style="stop-color:#FFFC9B"/>
		<stop  offset="0.3432" style="stop-color:#FFFB7B"/>
		<stop  offset="0.3653" style="stop-color:#FFFA5F"/>
		<stop  offset="0.3902" style="stop-color:#FFF949"/>
		<stop  offset="0.4193" style="stop-color:#FFF938"/>
		<stop  offset="0.4553" style="stop-color:#FFF82D"/>
		<stop  offset="0.5058" style="stop-color:#FFF826"/>
		<stop  offset="0.6458" style="stop-color:#FFF824"/>
	</linearGradient>
	<polygon class="st15" points="81.1,881.96 403,746.67 403,754.56 82.6,889.4 	"/>
	<polygon class="st6" points="506.89,778.56 620.36,824.33 615.25,829.22 502.56,784.33 	"/>
	<linearGradient id="SVGID_13_" gradientUnits="userSpaceOnUse" x1="179.7585" y1="1078.2191" x2="295" y2="1078.2191">
		<stop  offset="0.3542" style="stop-color:#FFF824"/>
		<stop  offset="0.4942" style="stop-color:#FFF826"/>
		<stop  offset="0.5447" style="stop-color:#FFF82D"/>
		<stop  offset="0.5807" style="stop-color:#FFF938"/>
		<stop  offset="0.6098" style="stop-color:#FFF949"/>
		<stop  offset="0.6347" style="stop-color:#FFFA5F"/>
		<stop  offset="0.6568" style="stop-color:#FFFB7B"/>
		<stop  offset="0.6767" style="stop-color:#FFFC9B"/>
		<stop  offset="0.695" style="stop-color:#FFFDC1"/>
		<stop  offset="0.7114" style="stop-color:#FFFEEA"/>
		<stop  offset="0.7188" style="stop-color:#FFFFFF"/>
		<stop  offset="0.72" style="stop-color:#FFFFFC;stop-opacity:0.9957"/>
		<stop  offset="0.7426" style="stop-color:#FFFDC8;stop-opacity:0.9151"/>
		<stop  offset="0.7665" style="stop-color:#FFFC99;stop-opacity:0.8303"/>
		<stop  offset="0.7916" style="stop-color:#FFFA70;stop-opacity:0.7411"/>
		<stop  offset="0.8178" style="stop-color:#FFF94D;stop-opacity:0.648"/>
		<stop  offset="0.8454" style="stop-color:#FFF931;stop-opacity:0.5496"/>
		<stop  offset="0.875" style="stop-color:#FFF81B;stop-opacity:0.4443"/>
		<stop  offset="0.9076" style="stop-color:#FFF70C;stop-opacity:0.3286"/>
		<stop  offset="0.9452" style="stop-color:#FFF703;stop-opacity:0.1947"/>
		<stop  offset="1" style="stop-color:#FFF700;stop-opacity:0"/>
	</linearGradient>
	<polygon class="st16" points="179.76,1123.63 268.63,1086.79 289.67,1027.74 295,1029.52 272.49,1092.24 183.12,1128.7 	"/>
	<linearGradient id="SVGID_14_" gradientUnits="userSpaceOnUse" x1="375.5302" y1="1232.1747" x2="523.1481" y2="1232.1747">
		<stop  offset="0" style="stop-color:#FFF824"/>
		<stop  offset="0.1161" style="stop-color:#FFF826"/>
		<stop  offset="0.1579" style="stop-color:#FFF82D"/>
		<stop  offset="0.1877" style="stop-color:#FFF938"/>
		<stop  offset="0.2118" style="stop-color:#FFF949"/>
		<stop  offset="0.2324" style="stop-color:#FFFA5F"/>
		<stop  offset="0.2507" style="stop-color:#FFFB7B"/>
		<stop  offset="0.2672" style="stop-color:#FFFC9B"/>
		<stop  offset="0.2824" style="stop-color:#FFFDC1"/>
		<stop  offset="0.296" style="stop-color:#FFFEEA"/>
		<stop  offset="0.3021" style="stop-color:#FFFFFF"/>
		<stop  offset="0.3051" style="stop-color:#FFFFFC;stop-opacity:0.9957"/>
		<stop  offset="0.3613" style="stop-color:#FFFDC8;stop-opacity:0.9151"/>
		<stop  offset="0.4206" style="stop-color:#FFFC99;stop-opacity:0.8303"/>
		<stop  offset="0.4827" style="stop-color:#FFFA70;stop-opacity:0.7411"/>
		<stop  offset="0.5478" style="stop-color:#FFF94D;stop-opacity:0.648"/>
		<stop  offset="0.6164" style="stop-color:#FFF931;stop-opacity:0.5496"/>
		<stop  offset="0.6899" style="stop-color:#FFF81B;stop-opacity:0.4443"/>
		<stop  offset="0.7707" style="stop-color:#FFF70C;stop-opacity:0.3286"/>
		<stop  offset="0.8641" style="stop-color:#FFF703;stop-opacity:0.1947"/>
		<stop  offset="1" style="stop-color:#FFF700;stop-opacity:0"/>
	</linearGradient>
	<polygon class="st17" points="520.14,1141.52 426.56,1185.96 375.53,1319.69 380.35,1322.83 431,1190.7 523.15,1146.26 	"/>
	<linearGradient id="SVGID_15_" gradientUnits="userSpaceOnUse" x1="578.4929" y1="1335.0459" x2="644.9259" y2="1335.0459">
		<stop  offset="0" style="stop-color:#FFF700"/>
		<stop  offset="0.1924" style="stop-color:#FFF703"/>
		<stop  offset="0.3261" style="stop-color:#FFF70C"/>
		<stop  offset="0.442" style="stop-color:#FFF81B"/>
		<stop  offset="0.5479" style="stop-color:#FFF931"/>
		<stop  offset="0.6468" style="stop-color:#FFF94D"/>
		<stop  offset="0.7407" style="stop-color:#FFFB70"/>
		<stop  offset="0.8305" style="stop-color:#FFFC99"/>
		<stop  offset="0.9153" style="stop-color:#FFFDC8"/>
		<stop  offset="0.9967" style="stop-color:#FFFFFD"/>
		<stop  offset="1" style="stop-color:#FFFFFF"/>
	</linearGradient>
	<polygon class="st18" points="638.7,1258.56 578.49,1409.91 584.9,1411.54 644.93,1260.48 	"/>
	<linearGradient id="SVGID_16_" gradientUnits="userSpaceOnUse" x1="873.6667" y1="1178.686" x2="1239.7968" y2="1178.686">
		<stop  offset="0" style="stop-color:#FFF700"/>
		<stop  offset="0.1072" style="stop-color:#FFF931"/>
		<stop  offset="0.3497" style="stop-color:#FFFCAB"/>
		<stop  offset="0.5104" style="stop-color:#FFFFFF"/>
		<stop  offset="1" style="stop-color:#FFF829"/>
	</linearGradient>
	<polygon class="st19" points="1239.8,1224.1 1009.67,1128.19 873.67,1186.65 875.57,1193.37 1009.96,1135.59 1234.82,1229.19 	"/>
	<linearGradient id="SVGID_17_" gradientUnits="userSpaceOnUse" x1="1071" y1="986.2952" x2="1365.0586" y2="986.2952">
		<stop  offset="0" style="stop-color:#FFFFFF"/>
		<stop  offset="0.0431" style="stop-color:#FFFEED"/>
		<stop  offset="0.1777" style="stop-color:#FFFDB9"/>
		<stop  offset="0.3146" style="stop-color:#FFFB8D"/>
		<stop  offset="0.4515" style="stop-color:#FFFA69"/>
		<stop  offset="0.5884" style="stop-color:#FFF94D"/>
		<stop  offset="0.7252" style="stop-color:#FFF939"/>
		<stop  offset="0.8623" style="stop-color:#FFF82D"/>
		<stop  offset="1" style="stop-color:#FFF829"/>
	</linearGradient>
	<polygon class="st20" points="1365.06,1044.25 1073.67,922.26 1071,928.48 1362.11,1050.33 	"/>
	<linearGradient id="SVGID_18_" gradientUnits="userSpaceOnUse" x1="1022.3436" y1="764.0785" x2="1413.826" y2="764.0785">
		<stop  offset="0" style="stop-color:#FFFF6D"/>
		<stop  offset="0.0322" style="stop-color:#FFFF69"/>
		<stop  offset="0.2725" style="stop-color:#FFFC4D"/>
		<stop  offset="0.5143" style="stop-color:#FFFA39"/>
		<stop  offset="0.7565" style="stop-color:#FFF82D"/>
		<stop  offset="1" style="stop-color:#FFF829"/>
	</linearGradient>
	<polygon class="st21" points="1413.83,905.6 1083.44,769.67 1028.27,616.48 1022.34,619.15 1079,775.3 1412.38,911.68 	"/>
	<linearGradient id="SVGID_19_" gradientUnits="userSpaceOnUse" x1="1267.4445" y1="681.8148" x2="1428.8186" y2="681.8148">
		<stop  offset="0" style="stop-color:#FFFF6D"/>
		<stop  offset="0.0322" style="stop-color:#FFFF69"/>
		<stop  offset="0.2725" style="stop-color:#FFFC4D"/>
		<stop  offset="0.5143" style="stop-color:#FFFA39"/>
		<stop  offset="0.7565" style="stop-color:#FFF82D"/>
		<stop  offset="1" style="stop-color:#FFF829"/>
	</linearGradient>
	<polygon class="st22" points="1269.99,655.59 1381.81,701.22 1428.16,680.47 1428.82,687.28 1382.11,708.04 1267.44,661.22 	"/>
	<polygon class="st10" points="1285.63,328.33 1122.85,395.15 1010.26,349.81 1008.42,356.63 1122.56,402.26 1289.49,333.27 	"/>
	<polygon class="st6" points="848.33,635.17 951,870.56 974.56,881.22 971,886.11 946.11,876.78 843.44,640.33 	"/>
</g>
<g id="Слой_3">
	<path class="st23" d="M1013.78,906.49c-53.89,88.07-150.97,146.85-261.78,146.85c-169.37,0-306.67-137.3-306.67-306.67
		S582.63,440,752,440c111.15,0,208.48,59.13,262.27,147.65"/>
	<line class="st23" x1="850.78" y1="285.22" x2="655.22" y2="1211.44"/>
	<path class="st24" d="M1027.78,922.49c-53.89,88.07-150.97,146.85-261.78,146.85c-169.37,0-306.67-137.3-306.67-306.67
		S596.63,456,766,456c111.15,0,208.48,59.13,262.27,147.65"/>
	<line class="st24" x1="864.78" y1="301.22" x2="669.22" y2="1227.44"/>
	<polygon class="st6" points="890.41,414.41 903.59,436.78 883,431.89 	"/>
	<polygon class="st6" points="749,497.67 768.56,531.22 777.89,499.44 	"/>
	<polygon class="st6" points="767.59,992.48 789.52,1024.33 761.37,1023.59 	"/>
	<polygon class="st6" points="627.15,1085.81 644.63,1117.22 650.26,1095.59 	"/>
</g>
</svg>
