<?xml version="1.0" encoding="utf-8"?>
<!-- Generator: Adobe Illustrator 23.0.5, SVG Export Plug-In . SVG Version: 6.00 Build 0)  -->
<svg version="1.1" id="Слой_1" xmlns="http://www.w3.org/2000/svg" xmlns:xlink="http://www.w3.org/1999/xlink" x="0px" y="0px"
	 viewBox="0 0 2500 1000" style="enable-background:new 0 0 2500 1000;" xml:space="preserve">
<g>
	<path d="M121.41,535.26c0-108.65,77.28-185.66,184.93-185.66c62.75,0,114.92,26.82,142.66,77.7l-48.21,32.32
		c-22.46-35.76-56.8-52.26-95.11-52.26c-68.69,0-120.21,50.2-120.21,127.9c0,79.08,51.52,128.59,120.21,128.59
		c38.31,0,72.65-16.5,95.11-52.26l48.21,31.63c-27.74,50.88-79.92,78.39-142.66,78.39C198.69,721.61,121.41,643.91,121.41,535.26z"
		/>
	<path d="M840.68,557.27h-284c7.93,63.95,57.46,106.58,126.81,106.58c40.95,0,75.29-14.44,101.05-44.01l35.01,42.63
		c-31.7,38.51-79.92,59.14-138.04,59.14c-112.94,0-188.24-77.7-188.24-186.35c0-107.96,74.63-185.66,175.69-185.66
		S842,425.24,842,537.32C842,542.83,841.34,551.08,840.68,557.27z M556.67,509.82h224.56c-6.6-61.2-50.86-104.52-112.28-104.52
		C608.19,405.3,563.28,447.93,556.67,509.82z"/>
	<path d="M1262.06,507.76v209.73h-63.41V515.32c0-71.51-34.34-106.58-94.45-106.58c-67.37,0-110.96,41.95-110.96,121.02v187.72
		h-63.41V353.04h60.76v55.01c25.76-37.13,70.67-58.45,126.15-58.45C1201.96,349.6,1262.06,400.48,1262.06,507.76z"/>
	<path d="M1576.45,696.17c-19.15,17.19-48.21,25.44-76.62,25.44c-70.67,0-110.96-40.57-110.96-114.15v-200.1h-59.44v-54.32h59.44
		v-79.77h63.41v79.77h100.39v54.32h-100.39v197.35c0,39.2,19.81,61.2,54.82,61.2c18.49,0,36.33-6.19,49.54-17.19L1576.45,696.17z"/>
	<path d="M1979.34,353.04v364.45h-60.1v-55.01c-25.76,37.82-69.35,59.14-118.89,59.14c-90.49,0-150.59-51.57-150.59-158.84V353.04
		h63.41V555.2c0,71.51,34.34,107.27,94.45,107.27c66.05,0,108.32-42.63,108.32-121.02V353.04H1979.34z"/>
	<path d="M2055.95,678.98l26.42-52.26c29.72,22,77.28,37.82,122.85,37.82c58.78,0,83.22-18.57,83.22-49.51
		c0-81.83-221.26-11-221.26-156.09c0-65.33,56.14-109.33,145.97-109.33c45.57,0,97.09,12.38,127.47,33.01l-27.08,52.26
		c-31.7-21.32-66.71-28.88-101.05-28.88c-55.48,0-82.56,21.32-82.56,50.2c0,85.95,221.92,15.82,221.92,157.47
		c0,66.01-58.12,107.96-151.25,107.96C2142.47,721.61,2085.01,703.04,2055.95,678.98z"/>
</g>
<rect x="281.67" y="265.67" transform="matrix(0.9779 0.2089 -0.2089 0.9779 121.0574 -52.0687)" width="50.67" height="562.67"/>
</svg>
