<?xml version="1.0" encoding="utf-8"?>
<!-- Generator: Adobe Illustrator 23.0.5, SVG Export Plug-In . SVG Version: 6.00 Build 0)  -->
<svg version="1.1" id="Слой_2" xmlns="http://www.w3.org/2000/svg" xmlns:xlink="http://www.w3.org/1999/xlink" x="0px" y="0px"
	 viewBox="0 0 1500 1500" style="enable-background:new 0 0 1500 1500;" xml:space="preserve">
<style type="text/css">
	.st0{fill:url(#SVGID_1_);}
	.st1{fill:url(#SVGID_2_);}
	.st2{fill:#FFFFFF;}
</style>
<linearGradient id="SVGID_1_" gradientUnits="userSpaceOnUse" x1="738.069" y1="1405.8966" x2="738.069" y2="64.5172">
	<stop  offset="0" style="stop-color:#39700D"/>
	<stop  offset="1" style="stop-color:#A8E780"/>
</linearGradient>
<circle class="st0" cx="738.07" cy="735.21" r="670.69"/>
<linearGradient id="SVGID_2_" gradientUnits="userSpaceOnUse" x1="738.069" y1="109.3448" x2="738.069" y2="1361.069">
	<stop  offset="0" style="stop-color:#BAF67C"/>
	<stop  offset="1" style="stop-color:#4D860D"/>
</linearGradient>
<circle class="st1" cx="738.07" cy="735.21" r="625.86"/>
<path class="st2" d="M1001.67,431.59c0,0-61.33-43.26-118.22-61.04c-56.89-17.78-134.22-26.67-195.11-19.11
	c-60.89,7.56-152.89,32.44-190.67,105.78S473.22,619.44,513.22,671S635,747.44,657.67,753.67c22.67,6.22,158.22,33.78,192.89,56.44
	c34.67,22.67,54.22,39.56,46.22,92.89S823,984.33,735.89,975.44c-87.11-8.89-136-38.22-172-62.22s-48-34.22-48-34.22l-72.44,98.07
	c0,0,45.33,39.26,128,71.26c82.67,32,137.33,35.11,189.78,35.11s123.11-4,196.89-60.89c73.78-56.89,76.29-133.01,67.56-186.22
	c-9.78-59.56-61.33-122.67-169.33-156c-108-33.33-219.56-44-246.67-103.56c-27.11-59.56,20-101.33,51.11-110.22
	c31.11-8.89,75.56-17.78,148,1.78c72.44,19.56,131.11,63.11,131.11,63.11L1001.67,431.59z"/>
<rect x="705.67" y="289.67" class="st2" width="88" height="894.67"/>
</svg>
