<?xml version="1.0" encoding="utf-8"?>
<!-- Generator: Adobe Illustrator 23.0.5, SVG Export Plug-In . SVG Version: 6.00 Build 0)  -->
<svg version="1.1" xmlns="http://www.w3.org/2000/svg" xmlns:xlink="http://www.w3.org/1999/xlink" x="0px" y="0px"
	 viewBox="0 0 1500 1500" style="enable-background:new 0 0 1500 1500;" xml:space="preserve">
<style type="text/css">
	.st0{fill:url(#SVGID_1_);}
	.st1{fill:#FFFFFF;}
	.st2{fill:url(#SVGID_2_);}
	.st3{fill:url(#SVGID_3_);stroke:#000000;stroke-miterlimit:10;}
	.st4{fill:#C1AD4D;}
	.st5{fill:#BDAD75;}
	.st6{opacity:0.64;fill:#9B7D27;}
	.st7{fill:url(#SVGID_4_);stroke:#FFFFFF;stroke-miterlimit:10;}
	.st8{fill:none;stroke:#E8E675;stroke-width:2;stroke-miterlimit:10;}
	.st9{fill:none;stroke:#E8D575;stroke-width:2;stroke-miterlimit:10;}
	.st10{fill:none;stroke:#E8CC56;stroke-width:2;stroke-miterlimit:10;}
	.st11{fill:none;stroke:#DEBA3F;stroke-width:2;stroke-miterlimit:10;}
</style>
<g id="Слой_2">
	<linearGradient id="SVGID_1_" gradientUnits="userSpaceOnUse" x1="285.6635" y1="254.3703" x2="1237.8193" y2="1206.5262">
		<stop  offset="0" style="stop-color:#F9F7AC"/>
		<stop  offset="0.5859" style="stop-color:#F1BE54"/>
		<stop  offset="0.9948" style="stop-color:#ECCD6C"/>
	</linearGradient>
	<circle class="st0" cx="761.74" cy="730.45" r="673.28"/>
	<path class="st1" d="M253.45,1171.99c123.44,141.98,305.38,231.73,508.29,231.73c371.84,0,673.28-301.44,673.28-673.28
		c0-189.59-78.36-360.88-204.47-483.24c0,0,140.94,149.74,172.45,303.35s33.33,277.44-12,396.36s-135.85,272.07-274.58,346.75
		c-138.74,74.68-333.84,153.48-573.12,65.33C362.33,1292.33,253.45,1171.99,253.45,1171.99z"/>
	<path class="st1" d="M88.47,730.45c0-371.84,301.44-673.28,673.28-673.28c0,0-161.26,6.42-265.85,62.72s-180.44,112.3-214.81,156.3
		s-36.15,47.11-36.15,47.11l30.52-25.18l-33.78,39.11l36-19.56l-32.89,23.78l62.67-22.67l-59.11,30l25.78,3.56l-16.89,3.78
		l10.89,14.44l-15.36,0.67l8.91,13.78h-12l1.56,8.81l-6.22-8.37l-3.33,18l-2-14.44l-7.78,21.78l-3.11-16.97l-10,52.75l-2.67-51.11
		l-7.33,10.67l0.67-10.67L196.78,397v-6.67c0,0-44.89,44.22-76.44,155.33S88.47,730.45,88.47,730.45z"/>
	<linearGradient id="SVGID_2_" gradientUnits="userSpaceOnUse" x1="333.5273" y1="302.2342" x2="1189.9554" y2="1158.6624">
		<stop  offset="0" style="stop-color:#BE7E29"/>
		<stop  offset="0.9948" style="stop-color:#FFFFD7"/>
	</linearGradient>
	<circle class="st2" cx="761.74" cy="730.45" r="605.59"/>
	<path class="st1" d="M1367.33,730.45c0,334.46-271.13,605.59-605.59,605.59c0,0,175.33,10.97,321.7-85.26
		c146.37-96.22,193.19-189.86,216.89-230.45c23.7-40.59,29.45-53.29,29.45-53.29v86.73l9.66-96.81l22.52,5.56l-5.33-14.49
		l5.33-13.04l25.48,15.08l-25.48-22.3h22.52l-17.15-2.41l24.27-18.14l-20.74,8.51l13.63-15.41l-17.15,9.95l44.41-45.27l-49.19,35.33
		l13.04-21.63l-20.15,12.31c0,0,9.54-59.43,11.88-100.61C1369.67,749.22,1367.33,730.45,1367.33,730.45z"/>
	<linearGradient id="SVGID_3_" gradientUnits="userSpaceOnUse" x1="197.2887" y1="530.1503" x2="1315.6022" y2="937.183">
		<stop  offset="0" style="stop-color:#25241D"/>
		<stop  offset="0.9948" style="stop-color:#1F1C0F"/>
	</linearGradient>
	<ellipse class="st3" cx="756.45" cy="733.67" rx="594.55" ry="597.33"/>
</g>
<g id="Слой_6">
	<path class="st4" d="M387.61,521.78c-13.96,0-25.28,8.76-25.28,19.56s11.32,19.56,25.28,19.56c13.96,0,25.28-8.76,25.28-19.56
		S401.57,521.78,387.61,521.78z M387.61,551.67c-7.38,0-13.36-4.63-13.36-10.33c0-5.71,5.98-10.33,13.36-10.33
		c7.38,0,13.36,4.63,13.36,10.33C400.97,547.04,394.99,551.67,387.61,551.67z"/>
	<path class="st4" d="M271.44,739c-13.96,0-25.28,8.76-25.28,19.56s11.32,19.56,25.28,19.56c13.96,0,25.28-8.76,25.28-19.56
		S285.41,739,271.44,739z M271.44,768.89c-7.38,0-13.36-4.63-13.36-10.33c0-5.71,5.98-10.33,13.36-10.33
		c7.38,0,13.36,4.63,13.36,10.33C284.8,764.26,278.82,768.89,271.44,768.89z"/>
	<path class="st4" d="M538.27,687.44c-13.96,0-25.28,8.76-25.28,19.56s11.32,19.56,25.28,19.56c13.96,0,25.28-8.76,25.28-19.56
		S552.23,687.44,538.27,687.44z M538.27,717.33c-7.38,0-13.36-4.63-13.36-10.33c0-5.71,5.98-10.33,13.36-10.33
		c7.38,0,13.36,4.63,13.36,10.33C551.63,712.71,545.65,717.33,538.27,717.33z"/>
	<path class="st4" d="M479.78,839.67c-12.46,0-22.56,7.91-22.56,17.67c0,9.76,10.1,17.67,22.56,17.67
		c12.46,0,22.56-7.91,22.56-17.67C502.33,847.58,492.23,839.67,479.78,839.67z M479.78,866.67c-6.58,0-11.92-4.18-11.92-9.34
		c0-5.16,5.34-9.34,11.92-9.34c6.58,0,11.92,4.18,11.92,9.34C491.7,862.49,486.36,866.67,479.78,866.67z"/>
	<path class="st4" d="M432.41,924.94c-12.46,0-22.56,7.91-22.56,17.67c0,9.76,10.1,17.67,22.56,17.67
		c12.46,0,22.56-7.91,22.56-17.67C454.97,932.85,444.87,924.94,432.41,924.94z M432.41,951.94c-6.58,0-11.92-4.18-11.92-9.34
		c0-5.16,5.34-9.34,11.92-9.34c6.58,0,11.92,4.18,11.92,9.34C444.33,947.76,439,951.94,432.41,951.94z"/>
	<path class="st4" d="M416.78,961.33c-12.46,0-22.56,7.91-22.56,17.67s10.1,17.67,22.56,17.67c12.46,0,22.56-7.91,22.56-17.67
		S429.23,961.33,416.78,961.33z M416.78,988.33c-6.58,0-11.92-4.18-11.92-9.34c0-5.16,5.34-9.34,11.92-9.34
		c6.58,0,11.92,4.18,11.92,9.34C428.7,984.15,423.36,988.33,416.78,988.33z"/>
	<path class="st4" d="M857.98,986.63c-9.58,0-17.35,7.91-17.35,17.67s7.77,17.67,17.35,17.67c9.58,0,17.35-7.91,17.35-17.67
		S867.57,986.63,857.98,986.63z M857.98,1013.63c-5.06,0-9.17-4.18-9.17-9.34s4.1-9.34,9.17-9.34c5.06,0,9.17,4.18,9.17,9.34
		S863.05,1013.63,857.98,1013.63z"/>
	<path class="st4" d="M1216.02,988.73c-7.51,3.76-11,12-7.79,18.4c3.21,6.4,11.89,8.54,19.4,4.77c7.51-3.76,11-12,7.79-18.4
		C1232.22,987.11,1223.53,984.97,1216.02,988.73z M1224.9,1006.44c-3.97,1.99-8.56,0.86-10.25-2.52c-1.69-3.38,0.15-7.73,4.12-9.72
		c3.97-1.99,8.56-0.86,10.25,2.52C1230.71,1000.1,1228.87,1004.45,1224.9,1006.44z"/>
	<path class="st4" d="M1285.3,935.78c-7.51,3.76-11,12-7.79,18.4c3.21,6.4,11.89,8.54,19.4,4.77c7.51-3.76,11-12,7.79-18.4
		C1301.5,934.15,1292.81,932.02,1285.3,935.78z M1294.17,953.49c-3.97,1.99-8.56,0.86-10.25-2.52c-1.69-3.38,0.15-7.73,4.12-9.72
		c3.97-1.99,8.56-0.86,10.25,2.52C1299.98,947.15,1298.14,951.5,1294.17,953.49z"/>
	<path class="st4" d="M1191.45,909.09c-7.51,3.76-11,12-7.79,18.4c3.21,6.4,11.89,8.54,19.4,4.77s11-12,7.79-18.4
		S1198.96,905.32,1191.45,909.09z M1200.32,926.79c-3.97,1.99-8.56,0.86-10.25-2.52s0.15-7.73,4.12-9.72
		c3.97-1.99,8.56-0.86,10.25,2.52C1206.13,920.45,1204.29,924.81,1200.32,926.79z"/>
	<path class="st4" d="M1180.23,770.47c-7.51,3.76-10.72,12.56-7.17,19.65c3.55,7.09,12.52,9.78,20.03,6.02
		c7.51-3.76,10.72-12.56,7.17-19.65C1196.7,769.41,1187.74,766.71,1180.23,770.47z M1190.06,790.09c-3.97,1.99-8.71,0.56-10.58-3.18
		c-1.88-3.74-0.18-8.39,3.79-10.38c3.97-1.99,8.71-0.56,10.58,3.18C1195.72,783.45,1194.02,788.1,1190.06,790.09z"/>
	<path class="st4" d="M1117.25,752.73c-7.51,3.76-10.72,12.56-7.17,19.64c3.55,7.09,12.52,9.78,20.03,6.02
		c7.51-3.76,10.72-12.56,7.17-19.64C1133.73,751.67,1124.76,748.97,1117.25,752.73z M1127.08,772.35
		c-3.97,1.99-8.71,0.56-10.58-3.18c-1.88-3.74-0.18-8.39,3.79-10.38c3.97-1.99,8.71-0.56,10.58,3.18
		C1132.74,765.71,1131.05,770.36,1127.08,772.35z"/>
	<path class="st4" d="M1075.53,722.8c-7.51,3.76-10.72,12.56-7.17,19.65c3.55,7.09,12.52,9.78,20.03,6.02
		c7.51-3.76,10.72-12.56,7.17-19.65C1092,721.73,1083.04,719.04,1075.53,722.8z M1085.36,742.41c-3.97,1.99-8.71,0.56-10.58-3.18
		c-1.88-3.74-0.18-8.39,3.79-10.38c3.97-1.99,8.71-0.56,10.58,3.18C1091.02,735.78,1089.33,740.43,1085.36,742.41z"/>
	<path class="st4" d="M1094.26,673.22c-7.51,3.76-10.72,12.56-7.17,19.64c3.55,7.09,12.52,9.78,20.03,6.02
		c7.51-3.76,10.72-12.56,7.17-19.65C1110.74,672.15,1101.77,669.46,1094.26,673.22z M1104.09,692.83
		c-3.97,1.99-8.71,0.56-10.58-3.18c-1.88-3.74-0.18-8.39,3.79-10.38c3.97-1.99,8.71-0.56,10.58,3.18
		C1109.75,686.2,1108.06,690.85,1104.09,692.83z"/>
	<path class="st4" d="M1203.22,605.97c-7.51,3.76-10.72,12.56-7.17,19.64c3.55,7.09,12.52,9.78,20.03,6.02
		c7.51-3.76,10.72-12.56,7.17-19.65C1219.69,604.9,1210.73,602.21,1203.22,605.97z M1213.05,625.59c-3.97,1.99-8.71,0.56-10.58-3.18
		c-1.88-3.74-0.18-8.39,3.79-10.38c3.97-1.99,8.71-0.56,10.58,3.18C1218.71,618.95,1217.02,623.6,1213.05,625.59z"/>
	<path class="st4" d="M1107.85,576.91c-7.51,3.76-10.72,12.56-7.17,19.65c3.55,7.09,12.52,9.78,20.03,6.02s10.72-12.56,7.17-19.65
		C1124.33,575.84,1115.36,573.15,1107.85,576.91z M1117.68,596.52c-3.97,1.99-8.71,0.56-10.58-3.18c-1.88-3.74-0.18-8.39,3.79-10.38
		c3.97-1.99,8.71-0.56,10.58,3.18C1123.34,589.89,1121.65,594.53,1117.68,596.52z"/>
	<path class="st4" d="M1028.4,462.32c-7.51,3.76-10.59,12.8-6.89,20.19c3.7,7.39,12.79,10.33,20.3,6.57s10.59-12.8,6.89-20.19
		C1045,461.5,1035.91,458.56,1028.4,462.32z M1038.65,482.77c-3.97,1.99-8.77,0.43-10.73-3.47c-1.96-3.91-0.33-8.68,3.64-10.67
		c3.97-1.99,8.77-0.43,10.73,3.47C1044.25,476.01,1042.62,480.78,1038.65,482.77z"/>
	<path class="st4" d="M1252.71,473.77c-7.51,3.76-10.59,12.8-6.89,20.19c3.7,7.39,12.79,10.33,20.3,6.57
		c7.51-3.76,10.59-12.8,6.89-20.19C1269.31,472.94,1260.22,470,1252.71,473.77z M1262.96,494.22c-3.97,1.99-8.77,0.43-10.73-3.47
		c-1.96-3.91-0.33-8.68,3.64-10.67c3.97-1.99,8.77-0.43,10.73,3.47C1268.56,487.45,1266.93,492.23,1262.96,494.22z"/>
	<path class="st4" d="M1175.59,377.34c-7.51,3.76-10.59,12.8-6.89,20.19c3.7,7.39,12.79,10.33,20.3,6.57
		c7.51-3.76,10.59-12.8,6.89-20.19C1192.19,376.52,1183.1,373.58,1175.59,377.34z M1185.84,397.79c-3.97,1.99-8.77,0.43-10.73-3.47
		c-1.96-3.91-0.33-8.68,3.64-10.67c3.97-1.99,8.77-0.43,10.73,3.47C1191.44,391.02,1189.81,395.8,1185.84,397.79z"/>
	<path class="st4" d="M1100.96,257.7c-7.51,3.76-10.59,12.8-6.89,20.19c3.7,7.39,12.79,10.33,20.3,6.57
		c7.51-3.76,10.59-12.8,6.89-20.19C1117.56,256.88,1108.47,253.94,1100.96,257.7z M1111.21,278.15c-3.97,1.99-8.77,0.43-10.73-3.47
		c-1.96-3.91-0.33-8.68,3.64-10.67c3.97-1.99,8.77-0.43,10.73,3.47C1116.81,271.39,1115.18,276.16,1111.21,278.15z"/>
	<path class="st4" d="M1059.6,228.83c-7.51,3.76-10.59,12.8-6.89,20.19c3.7,7.39,12.79,10.33,20.3,6.57
		c7.51-3.76,10.59-12.8,6.89-20.19C1076.2,228.01,1067.11,225.06,1059.6,228.83z M1069.85,249.28c-3.97,1.99-8.77,0.43-10.73-3.47
		c-1.96-3.91-0.33-8.68,3.64-10.67c3.97-1.99,8.77-0.43,10.73,3.47C1075.45,242.51,1073.82,247.29,1069.85,249.28z"/>
	<path class="st4" d="M898,290.62c-8.14,4.08-11.06,14.74-6.51,23.81c4.54,9.07,14.83,13.11,22.97,9.03
		c8.14-4.08,11.06-14.74,6.51-23.81C916.43,290.58,906.14,286.54,898,290.62z M910.58,315.71c-4.3,2.16-9.74,0.02-12.14-4.77
		c-2.4-4.79-0.86-10.42,3.44-12.58c4.3-2.16,9.74-0.02,12.14,4.77C916.42,307.92,914.88,313.56,910.58,315.71z"/>
	<path class="st4" d="M857.77,303.25c-8.14,4.08-11.06,14.74-6.51,23.81s14.83,13.11,22.97,9.03c8.14-4.08,11.06-14.74,6.51-23.81
		C876.19,303.22,865.91,299.17,857.77,303.25z M870.34,328.35c-4.3,2.16-9.74,0.02-12.14-4.77c-2.4-4.79-0.86-10.42,3.44-12.58
		c4.3-2.16,9.74-0.02,12.14,4.77C876.18,320.56,874.64,326.19,870.34,328.35z"/>
	<path class="st4" d="M719.19,268.49c-8.33,4.17-10.99,15.71-5.95,25.78c5.04,10.06,15.88,14.84,24.21,10.66
		c8.33-4.17,10.99-15.71,5.95-25.78C738.36,269.09,727.52,264.31,719.19,268.49z M733.15,296.33c-4.4,2.21-10.13-0.32-12.79-5.63
		c-2.66-5.32-1.26-11.42,3.14-13.62c4.4-2.21,10.13,0.32,12.79,5.63C738.96,288.03,737.55,294.13,733.15,296.33z"/>
	<path class="st4" d="M744.43,148.55c-7.66,6.08-7.78,18.68-0.28,28.13c7.51,9.46,19.8,12.19,27.46,6.11
		c7.66-6.08,7.78-18.68,0.28-28.13C764.39,145.2,752.09,142.47,744.43,148.55z M765.21,174.72c-4.05,3.21-10.54,1.77-14.51-3.23
		c-3.97-5-3.9-11.65,0.15-14.87c4.05-3.21,10.54-1.77,14.51,3.23C769.32,164.85,769.26,171.5,765.21,174.72z"/>
	<path class="st4" d="M429.93,279.03c-6.65,8.63-3.54,22.16,6.93,30.24c10.48,8.07,24.36,7.62,31-1c6.65-8.63,3.54-22.16-6.93-30.24
		C450.46,269.95,436.58,270.4,429.93,279.03z M458.92,301.37c-3.51,4.56-10.85,4.8-16.38,0.53c-5.54-4.27-7.18-11.42-3.66-15.98
		c3.51-4.56,10.85-4.8,16.38-0.53C460.79,289.66,462.43,296.81,458.92,301.37z"/>
	<path class="st4" d="M470.9,211.2c-6.65,8.63-3.54,22.16,6.93,30.24c10.48,8.07,24.36,7.62,31-1c6.65-8.63,3.54-22.16-6.93-30.24
		C491.43,202.13,477.54,202.58,470.9,211.2z M499.89,233.54c-3.51,4.56-10.85,4.8-16.38,0.53c-5.54-4.27-7.18-11.42-3.66-15.98
		c3.51-4.56,10.85-4.8,16.38-0.53C501.76,221.83,503.4,228.99,499.89,233.54z"/>
	<path class="st4" d="M828.6,458.03c-6.99,5.83-7.4,16.87-0.9,24.66c6.5,7.79,17.43,9.38,24.42,3.54c6.99-5.83,7.4-16.87,0.9-24.66
		S835.59,452.19,828.6,458.03z M846.57,479.58c-3.7,3.08-9.47,2.24-12.91-1.87c-3.43-4.12-3.22-9.95,0.48-13.03
		c3.7-3.08,9.47-2.24,12.91,1.87C850.48,470.67,850.27,476.5,846.57,479.58z"/>
	<path class="st4" d="M710.02,387.56c-7.6,6.34-8.04,18.34-0.98,26.8c7.06,8.47,18.94,10.19,26.54,3.85
		c7.6-6.34,8.04-18.34,0.98-26.8S717.62,381.22,710.02,387.56z M729.55,410.99c-4.02,3.35-10.3,2.44-14.03-2.04
		c-3.73-4.47-3.5-10.81,0.52-14.16s10.3-2.44,14.03,2.04C733.8,401.3,733.57,407.64,729.55,410.99z"/>
	<path class="st4" d="M732.96,606.95c-7.6,6.34-8.04,18.34-0.98,26.8s18.94,10.19,26.54,3.85s8.04-18.34,0.98-26.8
		C752.44,602.34,740.56,600.62,732.96,606.95z M752.5,630.38c-4.02,3.35-10.3,2.44-14.03-2.04c-3.73-4.47-3.5-10.81,0.52-14.16
		c4.02-3.35,10.3-2.44,14.03,2.04C756.74,620.69,756.51,627.03,752.5,630.38z"/>
	<path class="st4" d="M735.7,803.67c-7.6,6.34-8.04,18.34-0.98,26.8s18.94,10.19,26.54,3.85s8.04-18.34,0.98-26.8
		S743.3,797.33,735.7,803.67z M755.24,827.1c-4.02,3.35-10.3,2.44-14.03-2.04s-3.5-10.81,0.52-14.16c4.02-3.35,10.3-2.44,14.03,2.04
		C759.49,817.41,759.26,823.75,755.24,827.1z"/>
	<path class="st4" d="M1008.13,614.61c-7.51,3.76-10.72,12.56-7.17,19.65c3.55,7.09,12.52,9.78,20.03,6.02
		c7.51-3.76,10.72-12.56,7.17-19.65C1024.6,613.54,1015.63,610.85,1008.13,614.61z M1017.95,634.22c-3.97,1.99-8.71,0.56-10.58-3.18
		c-1.88-3.74-0.18-8.39,3.79-10.38c3.97-1.99,8.71-0.56,10.58,3.18C1023.62,627.59,1021.92,632.24,1017.95,634.22z"/>
	<path class="st4" d="M1283.19,630.66c-7.51,3.76-10.72,12.56-7.17,19.65c3.55,7.09,12.52,9.78,20.03,6.02
		c7.51-3.76,10.72-12.56,7.17-19.65C1299.67,629.59,1290.7,626.89,1283.19,630.66z M1293.02,650.27c-3.97,1.99-8.71,0.56-10.58-3.18
		c-1.88-3.74-0.18-8.39,3.79-10.38c3.97-1.99,8.71-0.56,10.58,3.18C1298.68,643.63,1296.99,648.28,1293.02,650.27z"/>
	<path class="st4" d="M1329.53,680.9c-7.51,3.76-10.72,12.56-7.17,19.65c3.55,7.09,12.52,9.78,20.03,6.02
		c7.51-3.76,10.72-12.56,7.17-19.65C1346,679.83,1337.04,677.14,1329.53,680.9z M1339.35,700.51c-3.97,1.99-8.71,0.56-10.58-3.18
		c-1.88-3.74-0.18-8.39,3.79-10.38c3.97-1.99,8.71-0.56,10.58,3.18C1345.02,693.88,1343.32,698.52,1339.35,700.51z"/>
	<path class="st4" d="M1332.14,717.62c-7.51,3.76-10.72,12.56-7.17,19.65c3.55,7.09,12.52,9.78,20.03,6.02s10.72-12.56,7.17-19.65
		C1348.61,716.55,1339.65,713.85,1332.14,717.62z M1341.97,737.23c-3.97,1.99-8.71,0.56-10.58-3.18s-0.18-8.39,3.79-10.38
		c3.97-1.99,8.71-0.56,10.58,3.18C1347.63,730.59,1345.93,735.24,1341.97,737.23z"/>
	<path class="st4" d="M1060.49,768.39c-7.51,3.76-10.72,12.56-7.17,19.64c3.55,7.09,12.52,9.78,20.03,6.02
		c7.51-3.76,10.72-12.56,7.17-19.64C1076.96,767.32,1068,764.63,1060.49,768.39z M1070.31,788c-3.97,1.99-8.71,0.56-10.58-3.18
		c-1.88-3.74-0.18-8.39,3.79-10.38c3.97-1.99,8.71-0.56,10.58,3.18S1074.28,786.01,1070.31,788z"/>
	<path class="st4" d="M403.44,997.72c-12.46,0-22.56,7.91-22.56,17.67s10.1,17.67,22.56,17.67c12.46,0,22.56-7.91,22.56-17.67
		S415.9,997.72,403.44,997.72z M403.44,1024.73c-6.58,0-11.92-4.18-11.92-9.34c0-5.16,5.34-9.34,11.92-9.34
		c6.58,0,11.92,4.18,11.92,9.34C415.36,1020.55,410.03,1024.73,403.44,1024.73z"/>
	<path class="st4" d="M285,970.67c-12.46,0-22.56,7.91-22.56,17.67c0,9.76,10.1,17.67,22.56,17.67c12.46,0,22.56-7.91,22.56-17.67
		C307.56,978.58,297.46,970.67,285,970.67z M285,997.67c-6.58,0-11.92-4.18-11.92-9.34c0-5.16,5.34-9.34,11.92-9.34
		c6.58,0,11.92,4.18,11.92,9.34C296.92,993.49,291.59,997.67,285,997.67z"/>
	<path class="st4" d="M303.23,911.58c-12.46,0-22.56,7.91-22.56,17.67c0,9.76,10.1,17.67,22.56,17.67
		c12.46,0,22.56-7.91,22.56-17.67C325.79,919.49,315.69,911.58,303.23,911.58z M303.23,938.58c-6.58,0-11.92-4.18-11.92-9.34
		c0-5.16,5.34-9.34,11.92-9.34c6.58,0,11.92,4.18,11.92,9.34C315.15,934.4,309.81,938.58,303.23,938.58z"/>
	<path class="st4" d="M200.05,944.67c0.24,0.01,0.48,0.01,0.72,0.01c12.46,0,22.56-7.91,22.56-17.67s-10.1-17.67-22.56-17.67
		c-4.38,0-8.46,0.98-11.92,2.67 M191.7,920.95c2.19-2.01,5.44-3.28,9.07-3.28c6.58,0,11.92,4.18,11.92,9.34
		c0,5.16-5.34,9.34-11.92,9.34c-1.39,0-2.73-0.19-3.97-0.53"/>
	<path class="st4" d="M490.82,483.99c-11.33-6.6-24.92-4.38-30.35,4.96c-5.43,9.33-0.66,22.25,10.67,28.84
		c11.33,6.6,24.92,4.38,30.35-4.96C506.92,503.5,502.15,490.58,490.82,483.99z M475.78,509.82c-5.99-3.48-8.51-10.31-5.64-15.24
		c2.87-4.93,10.05-6.1,16.04-2.62c5.99,3.48,8.51,10.31,5.64,15.24C488.95,512.13,481.77,513.3,475.78,509.82z"/>
	<path class="st4" d="M605.16,1129.04c-3.69-7.86-14.54-10.54-24.23-5.99c-9.69,4.55-14.56,14.61-10.87,22.47
		c3.69,7.86,14.54,10.54,24.23,5.99C603.99,1146.96,608.85,1136.9,605.16,1129.04z M591.77,1146.13
		c-6.03,2.83-12.77,1.16-15.07-3.72c-2.29-4.89,0.73-11.14,6.76-13.97c6.03-2.83,12.77-1.16,15.07,3.72
		S597.79,1143.3,591.77,1146.13z"/>
	<path class="st4" d="M667.74,1164.69c-3.69-7.86-14.54-10.54-24.23-5.99c-9.69,4.55-14.56,14.61-10.87,22.47
		c3.69,7.86,14.54,10.54,24.23,5.99C666.56,1182.62,671.43,1172.55,667.74,1164.69z M654.34,1181.78
		c-6.03,2.83-12.77,1.16-15.07-3.72c-2.29-4.89,0.73-11.14,6.76-13.97c6.03-2.83,12.77-1.16,15.07,3.72
		S660.37,1178.95,654.34,1181.78z"/>
	<path class="st4" d="M606.52,1222.64c-3.69-7.86-14.54-10.54-24.23-5.99c-9.69,4.55-14.56,14.61-10.87,22.47
		c3.69,7.86,14.54,10.54,24.23,5.99C605.35,1240.56,610.21,1230.5,606.52,1222.64z M593.13,1239.73
		c-6.03,2.83-12.77,1.16-15.07-3.72c-2.29-4.89,0.73-11.14,6.76-13.97c6.03-2.83,12.77-1.16,15.07,3.72
		S599.15,1236.9,593.13,1239.73z"/>
	<path class="st4" d="M788.6,1230.97c-3.69-7.86-14.54-10.54-24.23-5.99c-9.69,4.55-14.56,14.61-10.87,22.47
		c3.69,7.86,14.54,10.54,24.23,5.99C787.42,1248.89,792.29,1238.83,788.6,1230.97z M775.2,1248.06c-6.03,2.83-12.77,1.16-15.07-3.72
		c-2.29-4.89,0.73-11.14,6.76-13.97c6.03-2.83,12.77-1.16,15.07,3.72S781.23,1245.23,775.2,1248.06z"/>
	<path class="st4" d="M843.86,1248.21c-3.19-6.8-12.58-9.12-20.97-5.18c-8.39,3.94-12.6,12.65-9.4,19.45
		c3.19,6.8,12.58,9.12,20.97,5.18C842.84,1263.72,847.05,1255.01,843.86,1248.21z M832.27,1263c-5.22,2.45-11.05,1.01-13.04-3.22
		c-1.99-4.23,0.63-9.64,5.85-12.09s11.05-1.01,13.04,3.22C840.1,1255.14,837.48,1260.55,832.27,1263z"/>
	<path class="st4" d="M985.08,1190.3c-3.19-6.8-12.58-9.12-20.97-5.18c-8.39,3.94-12.6,12.65-9.4,19.45
		c3.19,6.8,12.58,9.12,20.97,5.18C984.06,1205.8,988.28,1197.1,985.08,1190.3z M973.49,1205.08c-5.22,2.45-11.05,1.01-13.04-3.22
		c-1.99-4.23,0.63-9.64,5.85-12.09c5.22-2.45,11.05-1.01,13.04,3.22S978.71,1202.64,973.49,1205.08z"/>
	<path class="st4" d="M995.19,1159.55c-3.19-6.8-12.58-9.12-20.97-5.18c-8.39,3.94-12.6,12.65-9.4,19.45s12.58,9.12,20.97,5.18
		C994.17,1175.06,998.38,1166.36,995.19,1159.55z M983.6,1174.34c-5.22,2.45-11.05,1.01-13.04-3.22c-1.99-4.23,0.63-9.64,5.85-12.09
		c5.22-2.45,11.05-1.01,13.04,3.22C991.43,1166.48,988.81,1171.89,983.6,1174.34z"/>
	<path class="st4" d="M1068.81,1022.05c-3.19-6.8-12.58-9.12-20.97-5.18c-8.39,3.94-12.6,12.65-9.4,19.45
		c3.19,6.8,12.58,9.12,20.97,5.18C1067.8,1037.55,1072.01,1028.85,1068.81,1022.05z M1057.22,1036.84
		c-5.22,2.45-11.05,1.01-13.04-3.22c-1.99-4.23,0.63-9.64,5.85-12.09c5.22-2.45,11.05-1.01,13.04,3.22
		S1062.44,1034.39,1057.22,1036.84z"/>
	<polygon class="st4" points="474.56,236.11 452.78,277.67 460.77,282.7 483,240.04 	"/>
	<polygon class="st4" points="511.44,327 549.22,220.56 741.89,164.56 745.95,174.78 558.33,228.78 527.44,316.78 	"/>
	<polygon class="st4" points="871.01,147.41 989.81,214.7 1004.12,190.47 994.25,186.03 986.85,199.89 904.15,154.91 881.77,149.63 
			"/>
	<polygon class="st4" points="738.6,276.19 878.41,234.27 1034.26,308.33 1058.3,250.14 1066.31,253.52 1039.89,319.67 
		877.22,244.33 741.58,284.93 	"/>
	<polygon class="st4" points="920.78,311.59 977.07,340.63 1035.11,462.82 1027.09,465.67 971.15,346.26 916.93,318.11 	"/>
	<polygon class="st4" points="865.99,334.41 849.11,378.56 908.93,503 1106.33,582.06 1101.52,589.74 901.52,510.11 838.7,378.26 
		857.64,331.74 	"/>
	<polygon class="st4" points="686.11,327 717.29,386.26 709.22,392.48 686.11,345.3 	"/>
	<polygon class="st4" points="683.39,432.48 801.07,482.33 824.78,472.13 828.63,481.44 801.96,491.81 682.5,441.97 	"/>
	<polygon class="st4" points="683.39,458.53 1170.85,648.48 1131.63,754.26 1123.68,752.71 1160.78,653.22 682.5,467.74 	"/>
	<polygon class="st4" points="684.64,475.15 882.85,552.78 901.22,588.04 891.44,590.26 877.22,560.19 683.39,484.63 	"/>
	<polygon class="st4" points="686.63,545.22 818.85,592.48 831.23,609.07 823.08,614.35 812.04,599.74 686.63,554.78 	"/>
	<polygon class="st4" points="686.63,595.44 731.15,614.35 731.15,623.89 686.63,605.96 	"/>
	<polygon class="st4" points="688.19,643.89 748.49,667.34 740.04,673.3 686.63,653.52 	"/>
	<polygon class="st4" points="689.52,746.31 891.44,807.14 890.26,817.81 686.63,758.48 	"/>
	<polygon class="st4" points="763.74,819 903.89,859.05 906,868.93 763.74,826.91 	"/>
	<polygon class="st4" points="691.44,864.12 734.7,848.19 922.36,895.3 923.4,907.23 736.19,857.37 693,871.74 	"/>
	<polygon class="st4" points="720.19,992.56 837.81,935 927.3,956.96 925.22,965.52 839,944.35 726.11,999.07 	"/>
	<polygon class="st4" points="872.63,1004.3 889.72,1013.63 884.16,1020.33 870.7,1012.31 	"/>
	<polygon class="st4" points="1011.09,976.29 1034.26,978.84 1051.74,1016.04 1045.22,1020.33 1029.81,986.63 1009.37,981.81 	"/>
	<polygon class="st4" points="1040.36,927.78 1091.15,940.93 1192.47,1139.76 1186.46,1146.17 1085.81,949.52 1043.52,937.44 	"/>
	<polygon class="st4" points="1063.73,857.67 1111.89,871.74 1210.26,1069.52 1242.73,1077.43 1236.62,1085.99 1205.07,1078.7 
		1105.44,880.48 1065.07,867.74 	"/>
	<polygon class="st4" points="1221.83,1011.74 1241.07,1054.7 1254.06,1060.69 1258.42,1053.91 1247,1049.67 1229.64,1007.42 	"/>
	<polygon class="st4" points="1300.33,952.48 1309.06,954.47 1311.82,947.36 1305.89,945.69 	"/>
	<polygon class="st4" points="1209.67,919 1291.11,878.7 1329.79,892.37 1327.43,900.75 1291.11,887.3 1207.04,929.53 	"/>
	<polygon class="st4" points="1071.27,817.67 1138.73,839.45 1228.33,793.44 1343.4,829.44 1341.71,839.45 1229.64,803.44 
		1140.04,849.07 1071.27,826.91 	"/>
	<polygon class="st4" points="1195.74,775.63 1249.96,744.98 1349.14,781.22 1348.3,790.98 1251.44,756.44 1200.19,783.31 	"/>
	<polygon class="st4" points="1301.52,643.49 1346.52,659.96 1347.57,669.18 1299.44,649.96 	"/>
	<polygon class="st4" points="1209.65,630.41 1235.74,693.73 1325.22,730.45 1328.01,722.77 1242.73,687.52 1217.6,626.48 	"/>
	<polygon class="st4" points="1271.89,489.37 1305.66,504.48 1309.29,513.46 1268.83,495.08 	"/>
	<polygon class="st4" points="1342.65,633.34 1123.44,539.44 1057.67,387.44 1099.66,281.67 1107.67,284.33 1066.31,386.85 
		1130.56,533.52 1340.93,623.65 	"/>
	<polygon class="st4" points="1334.43,593.07 1150.11,513.46 1097.67,390.72 1139.69,276.97 1146.73,283.04 1107.67,390.72 
		1156.33,506.85 1331.68,582.06 	"/>
	<polygon class="st4" points="1183.59,375.7 1200.16,336.07 1206.45,343.26 1191.65,378.78 	"/>
	<polygon class="st4" points="960.48,1038.03 974.11,1063.44 1099.89,1090.09 1147.98,1183.19 1140.22,1189.9 1095,1098.26 
		969.89,1070.7 954.11,1043.15 	"/>
	<polygon class="st4" points="886.05,1099.56 1048.78,1127.67 1100.02,1221.23 1090.74,1227.71 1043.52,1137.32 880.21,1105.67 	"/>
	<polygon class="st4" points="828.67,1134.78 968.33,1160.96 966.56,1166.69 822.41,1140.11 	"/>
	<polygon class="st4" points="765.22,1161.89 957.67,1191.89 955.22,1197.43 760.49,1166.69 	"/>
	<polygon class="st4" points="787.89,1239.21 820.11,1246.49 816.78,1250.78 784.56,1243.22 	"/>
	<polygon class="st4" points="759.37,1188.58 868.78,1203 903,1262.56 1001.89,1277.89 991.38,1282.56 899.44,1269.58 
		864.11,1209.67 753.44,1194.11 	"/>
	<polygon class="st4" points="600.65,1240.11 664.42,1323.89 651.91,1321.8 594.11,1243 	"/>
	<polygon class="st4" points="759.37,1330.99 668.97,1201 338.66,1158.67 347.68,1167.43 664.42,1207.89 751.22,1331 	"/>
	<path class="st4" d="M568.83,1093.67c-1.16,0-25.38-2.22-25.38-2.22l-117.78,59.78l-107.52-13.94l7.23,7.78l102.3,13.62
		L547,1098.23l26.89,2.55L568.83,1093.67z"/>
	<polygon class="st4" points="421,1014.33 506.56,1030.56 491.22,1073.67 410.56,1113.44 283.95,1096.29 276.69,1086.56 
		409,1106.11 486.56,1067.44 497.67,1036.11 422.33,1021.44 	"/>
	<polygon class="st4" points="436.11,979 537.67,997.72 536.56,1004.78 436.11,985.89 	"/>
	<polygon class="st4" points="227.17,1006.06 264.78,991.89 270.56,997.72 231.06,1013.54 	"/>
	<polygon class="st4" points="451.44,944.35 531.67,957.67 531.67,966.56 448.78,951.44 	"/>
	<polygon class="st4" points="499.89,859.22 528.78,866.11 527.89,875 497.44,866.11 	"/>
	<polygon class="st4" points="296.92,914.11 259.44,862.78 171.86,843.15 173.57,852.04 253.67,868.56 288.47,915.89 	"/>
	<polygon class="st4" points="166.86,811.24 301,844.56 426.11,792.19 530.11,819.74 530.11,810.11 426.56,781 301.44,833.67 
		165.7,801.69 	"/>
	<polygon class="st4" points="522.56,592.78 489.07,581.37 408.19,609.96 385.37,668.04 428.93,737.07 522.82,765.24 524.91,755 
		438.11,730.45 397.52,665.52 415.89,617.37 489.96,590.56 526.11,604.04 	"/>
	<path class="st4" d="M287.89,748.22c0.89-1.37,22.22-9.22,22.22-9.22l67.85-182.67l12.15,2.07l-72.59,189.81l-24.89,7.81
		L287.89,748.22z"/>
	<polygon class="st4" points="161.89,718.11 263.59,679 340.63,468.63 511,412.78 519.89,421.96 350.41,476.63 271.3,688.19 
		161.91,729.07 	"/>
	<polygon class="st4" points="168.96,641.26 222.7,621.81 336.55,310.77 319.45,328.63 216.48,609.37 170.84,629.86 	"/>
	<polygon class="st4" points="487,518.85 504.78,545.22 523.67,550.56 523.67,539.59 509.67,536.85 495.44,515.22 	"/>
</g>
<g id="Слой_3">
	<path class="st5" d="M521.22,316.78c0,0-52.44,39.56-76,54.22c-23.56,14.67-31.11,21.33-28,38.22s18.67,30.22,24.44,35.56
		c5.78,5.33,11.11,5.78,11.11,5.78l4.44-28.89l108-80.89l97.5-68.43l14.5,10.35l13.56-10.59l-3.33-6.33l5.44-0.67l-5.56-11.22
		l-1.67-3.78c0,0-14.67-10.22-33.78-10.07c-19.11,0.15-36.67,7.19-72,32.52C544.56,297.89,521.22,316.78,521.22,316.78z"/>
	<path class="st6" d="M685.67,250.11c0,0,15.11,6.89,23.56,30.89s7.33,51.11,8,100.22s7.33,502.22,7.33,502.22
		S725,925,738.11,947.22c13.11,22.22,21.33,33.78,27.33,40.44c6,6.67,33.11,24.44,33.11,24.44l-6.41,28.26L645,1001.67l25.11-725.33
		l11.11-2.67l-3.11-3.92h10.67l-14.22-4.82l15.41-2.22l-6.07-9.33L685.67,250.11z"/>
	<path class="st6" d="M750,712.19l-9.96,27.41c0,0,5.48,2.07,22.96,2.67s28.44-0.92,45.26,3.61s20.82-27.32,20.82-27.32L796.63,707
		L750,712.19z"/>
	<path class="st5" d="M802.11,743.89c0,0,49.78,12,79.11,70.22c29.33,58.22,44.89,124.44,23.11,170.22s-55.11,38.67-69.78,36.44
		c-14.67-2.22-31.63-5.67-38.7-10.45s-7.83-5.31-7.83-5.31l5.41,6.65l-19.56,1.89l15.33,8l-11.56,0.98l7.67,4.57l-15.79,1.57
		c0,0,11.56,10.43,42.95,17.54c31.39,7.11,102.05,7,102.05,7s48.01-80,48.6-81.78s3.56-65.19,1.78-75.26s-38.52-112-42.67-121.48
		c-4.15-9.48-53.33-59.85-60.44-66.96c-7.11-7.11-66.96,5.04-66.96,5.04l18.96,10.81l-12.3,0.3l11.7,8l-16.74,4.15l8.89,6.22
		L802.11,743.89z"/>
	<path class="st6" d="M457.22,421.67l-4.44,28.89c0,0,6.22,2.52,19.26-1.78c13.04-4.3,21.48-8.15,21.48-8.15s2.07-9.33,6.07-16.59
		c4-7.26,8-12.59,8-12.59h-32.15L457.22,421.67z"/>
	<path class="st5" d="M509.67,410.7c0,0,22.81,10.37,35.26,42.22c12.44,31.85,14.37,88.74,14.07,102.22
		c-0.3,13.48,24.3,426.37,24.3,426.37l37.93,74.67c0,0,61.04,61.04,61.63,64s42.37,43.7,42.37,43.7l-3.44,36.09l-8.7-0.69
		c0,0-23.74-3.74-54.63-21.63c-30.89-17.89-83.15-52.15-111.3-115.26c-28.15-63.11-23.7-381.93-26.67-467.85
		c-2.96-85.93-11.11-123.85-14.96-134.07c-3.85-10.22-12-19.85-12-19.85s2.95-10.7,8-19.94C506.56,411.44,509.67,410.7,509.67,410.7
		z"/>
	<path class="st6" d="M708.04,1164.04l11.56,14.52h-13.04l6.52,11.26v9.48c0,0,49.78,7.41,112.3-22.52
		c62.52-29.93,133.63-85.63,193.78-150.81s79.41-129.19,85.33-195.26s-17.04-111.26-27.26-132.15
		c-10.22-20.89-41.04-60.67-64.3-78.67c-23.26-18-34.12,13.64-34.12,13.64l-4.69,23.03l58.37,239.04l-72.3,126.81l-135.7,107.26
		L708.04,1164.04z"/>
	<path class="st5" d="M796.04,628.04l-65.04,44c0,0-9.33,5.33-11.11,19.56c-1.78,14.22,0.89,24.44,6.07,34.07
		s14.07,13.93,14.07,13.93l9.96-27.41l121.44-84.89l127.11,25.33l-3.41-12.15l12.15,0.89l-6.07-10.81l10.22-2.67l1.48-8
		c0,0-30.67-24.89-72.59-32.3c-41.93-7.41-72.15-0.15-96,10.67C820.48,609.07,806.04,621.27,796.04,628.04z"/>
</g>
<g id="Слой_4">
	<linearGradient id="SVGID_4_" gradientUnits="userSpaceOnUse" x1="463.4388" y1="963.8625" x2="911.2612" y2="516.0401">
		<stop  offset="0" style="stop-color:#C8921F"/>
		<stop  offset="1" style="stop-color:#F7EF95"/>
	</linearGradient>
	<path class="st7" d="M445.22,404.93c0,0,91.56-65.48,131.56-97.19s69.04-48,93.33-31.41c24.3,16.59,17.78,32,19.56,114.67
		s7.41,479.11,7.41,479.11s1.19,46.52,11.26,74.96c10.07,28.44,20.44,59.26,66.37,86.81c45.93,27.56,108.15,18.37,133.63-6.52
		c25.48-24.89,37.33-63.11,32.3-119.11s-35.26-108.44-52.74-135.11c-17.48-26.67-56.3-50.96-85.04-55.41
		c-28.74-4.44-52.85-3.56-52.85-3.56l-6.7-16.3c0,0,88.3-59.56,104.59-68.44c16.3-8.89,61.93-23.41,104.89-6.22s64.3,38.81,80,61.04
		c15.7,22.22,29.93,48.89,38.81,88.59c8.89,39.7,4.15,100.44-20.15,158.22s-123.26,150.81-178.67,186.96
		c-55.41,36.15-119.41,66.96-169.19,52.15s-105.19-54.52-129.78-112c-24.59-57.48-23.26-150.07-23.7-205.63
		c-0.44-55.56-1.78-234.67-1.78-234.67S545.67,531,539,483s-26.67-73.33-45.78-71.11c-19.11,2.22-36,9.78-36,9.78L445.22,404.93z"/>
</g>
<g id="Слой_5">
	<line class="st8" x1="642.66" y1="270.24" x2="683.97" y2="291.18"/>
	<line class="st8" x1="641.52" y1="276.19" x2="678.26" y2="293.96"/>
	<line class="st8" x1="611.86" y1="282.7" x2="689.12" y2="323.3"/>
	<line class="st8" x1="612.48" y1="287.89" x2="680.04" y2="323.3"/>
	<line class="st8" x1="616.63" y1="297.96" x2="689.12" y2="335.59"/>
	<line class="st8" x1="596.86" y1="292.56" x2="672.04" y2="333.52"/>
	<line class="st8" x1="588.36" y1="298.78" x2="602.7" y2="306.41"/>
	<line class="st8" x1="661.07" y1="339.89" x2="689.29" y2="354.85"/>
	<line class="st8" x1="650.49" y1="351.89" x2="669.52" y2="361.81"/>
	<line class="st8" x1="642.7" y1="354.11" x2="665.07" y2="366.11"/>
	<line class="st8" x1="561.72" y1="319.43" x2="689.57" y2="386.26"/>
	<line class="st8" x1="641.81" y1="367.44" x2="689.7" y2="392.48"/>
	<path class="st8" d="M586.7,351.89c0,0.59,103.29,55.26,103.29,55.26"/>
	<line class="st8" x1="537.63" y1="337.58" x2="672.63" y2="409.96"/>
	<line class="st8" x1="531.9" y1="341.84" x2="601.37" y2="379.52"/>
	<line class="st8" x1="614.41" y1="387.3" x2="676.04" y2="420.33"/>
	<line class="st8" x1="625.65" y1="401.67" x2="674.11" y2="426.7"/>
	<line class="st8" x1="538.65" y1="360.68" x2="569.67" y2="377.52"/>
	<line class="st8" x1="577.52" y1="373.77" x2="591.15" y2="380.78"/>
	<line class="st8" x1="588.48" y1="389.07" x2="690.61" y2="441.97"/>
	<line class="st8" x1="507.1" y1="360.11" x2="597.96" y2="407.15"/>
	<path class="st8" d="M512.33,370.11c1.33,1.33,82.81,42.67,82.81,42.67"/>
	<line class="st8" x1="548.19" y1="396.19" x2="586.7" y2="415.52"/>
	<line class="st8" x1="481.52" y1="378.76" x2="513.96" y2="396.19"/>
	<line class="st8" x1="465.44" y1="390.39" x2="495.89" y2="407.15"/>
	<line class="st8" x1="609.37" y1="414.19" x2="668.33" y2="445.22"/>
	<line class="st8" x1="690.74" y1="449.82" x2="676.04" y2="441.97"/>
	<line class="st8" x1="633.81" y1="438.7" x2="663.98" y2="453.5"/>
	<line class="st8" x1="549.78" y1="412.78" x2="660.78" y2="469.89"/>
	<line class="st8" x1="584.33" y1="447.44" x2="599.22" y2="454.56"/>
	<line class="st8" x1="524.51" y1="434.72" x2="616.11" y2="482.33"/>
	<line class="st8" x1="645.22" y1="478.56" x2="691.61" y2="503.01"/>
	<line class="st8" x1="617.81" y1="477.22" x2="628.93" y2="483"/>
	<line class="st8" x1="624.63" y1="487.15" x2="642.26" y2="496.48"/>
	<line class="st8" x1="646.11" y1="494.11" x2="691.86" y2="518.85"/>
	<line class="st8" x1="574.11" y1="469.89" x2="692.04" y2="529.96"/>
	<line class="st8" x1="534.29" y1="459.69" x2="587.74" y2="487.15"/>
	<line class="st8" x1="561.02" y1="480.11" x2="650.11" y2="524.33"/>
	<line class="st8" x1="537.65" y1="474.56" x2="547.59" y2="480.11"/>
	<line class="st8" x1="539" y1="483" x2="552.78" y2="490.78"/>
	<line class="st8" x1="558.56" y1="499.93" x2="572.78" y2="507.44"/>
	<line class="st8" x1="668.99" y1="536.48" x2="692.32" y2="548.04"/>
	<path class="st8" d="M665.81,548.04c0.44,0.29,26.71,13.48,26.71,13.48"/>
	<line class="st8" x1="617.81" y1="521.22" x2="670.26" y2="546.56"/>
	<line class="st8" x1="628.93" y1="535.44" x2="645.22" y2="543.74"/>
	<line class="st8" x1="549.07" y1="508.33" x2="692.81" y2="579.89"/>
	<line class="st8" x1="582.11" y1="529.96" x2="608.48" y2="543.74"/>
	<line class="st8" x1="672.04" y1="579.3" x2="692.96" y2="590.26"/>
	<line class="st8" x1="543.3" y1="524.33" x2="693.15" y2="602.56"/>
	<line class="st8" x1="544.44" y1="539.59" x2="692.96" y2="614.35"/>
	<line class="st8" x1="604.48" y1="578.26" x2="624.93" y2="588.63"/>
	<line class="st8" x1="615.3" y1="591.15" x2="632.33" y2="599.74"/>
	<path class="st8" d="M675.74,619.44c0.3,0.59,17.81,9.49,17.81,9.49"/>
	<line class="st8" x1="661.96" y1="620.04" x2="675.74" y2="627.74"/>
	<line class="st8" x1="660.48" y1="626.11" x2="693.77" y2="643.89"/>
	<line class="st8" x1="693.88" y1="650.71" x2="672.04" y2="639.3"/>
	<path class="st8" d="M566.26,575.15c0.59,0.15,61.63,30.81,61.63,30.81"/>
	<path class="st8" d="M567.89,568.48c-0.74-0.59-22.36-12.15-22.36-12.15"/>
	<line class="st8" x1="552.63" y1="576.33" x2="570.7" y2="586.41"/>
	<line class="st8" x1="546.89" y1="581.37" x2="668.99" y2="643.3"/>
	<line class="st8" x1="547.21" y1="588.04" x2="610.11" y2="620.04"/>
	<line class="st9" x1="547.57" y1="596.04" x2="643.59" y2="645"/>
	<line class="st8" x1="630.85" y1="632.04" x2="694.1" y2="665.52"/>
	<line class="st9" x1="599.3" y1="630.41" x2="694.33" y2="681.37"/>
	<line class="st9" x1="548.25" y1="613.37" x2="649.37" y2="665.52"/>
	<line class="st9" x1="601.52" y1="648.04" x2="694.59" y2="698.56"/>
	<line class="st9" x1="548.43" y1="628.93" x2="601.52" y2="657.67"/>
	<line class="st9" x1="627.59" y1="675.15" x2="652.33" y2="688.63"/>
	<line class="st9" x1="665.07" y1="689.37" x2="675.74" y2="695.3"/>
	<line class="st9" x1="581.96" y1="660.48" x2="622.41" y2="682.85"/>
	<line class="st9" x1="641.07" y1="690.11" x2="694.87" y2="717.81"/>
	<line class="st9" x1="627.59" y1="696.63" x2="663.74" y2="715.3"/>
	<line class="st10" x1="560.19" y1="685.52" x2="695.41" y2="755"/>
	<line class="st10" x1="605.52" y1="714.7" x2="626.85" y2="726.26"/>
	<line class="st10" x1="548.93" y1="695.3" x2="671" y2="758.56"/>
	<line class="st10" x1="548.93" y1="703" x2="559" y2="708.78"/>
	<line class="st10" x1="581.81" y1="719" x2="592.93" y2="725.52"/>
	<line class="st10" x1="560.19" y1="714.7" x2="572.04" y2="722.26"/>
	<line class="st10" x1="596.63" y1="732.63" x2="695.84" y2="784.33"/>
	<line class="st10" x1="549.09" y1="717.07" x2="675.44" y2="782.7"/>
	<line class="st10" x1="548.93" y1="722.26" x2="625.52" y2="763.74"/>
	<path class="st10" d="M663.74,784.33c0.3,0.74,32.35,17.19,32.35,17.19"/>
	<line class="st10" x1="646.23" y1="781.52" x2="696.19" y2="808.78"/>
	<line class="st11" x1="582.56" y1="768.48" x2="683" y2="819.74"/>
	<line class="st11" x1="549.35" y1="751.74" x2="564.93" y2="760.33"/>
	<line class="st11" x1="549.35" y1="762.56" x2="601.96" y2="790.26"/>
	<line class="st11" x1="665.37" y1="803.89" x2="696.38" y2="821.37"/>
	<line class="st11" x1="549.35" y1="782.7" x2="619" y2="817.81"/>
	<line class="st11" x1="549.66" y1="792.19" x2="612.27" y2="822.7"/>
	<line class="st11" x1="639.44" y1="824.19" x2="672.04" y2="838.41"/>
	<line class="st11" x1="630.85" y1="828.63" x2="672.78" y2="848.19"/>
	<line class="st11" x1="678.11" y1="832.19" x2="696.67" y2="841.97"/>
	<line class="st11" x1="636.63" y1="846.41" x2="697.35" y2="876.63"/>
	<line class="st11" x1="549.81" y1="811.44" x2="633.67" y2="854.26"/>
	<line class="st11" x1="549.87" y1="819.74" x2="577.22" y2="833.67"/>
	<line class="st11" x1="549.94" y1="828.63" x2="651.81" y2="879.59"/>
	<line class="st11" x1="550" y1="836.19" x2="603.15" y2="863.3"/>
	<line class="st11" x1="674.41" y1="875" x2="697.99" y2="886.43"/>
	<line class="st11" x1="666.26" y1="892.04" x2="689.52" y2="903.59"/>
	<path class="st11" d="M613.22,882.7c0.89,0.59,90.48,45.57,90.48,45.57"/>
	<line class="st11" x1="550.2" y1="864.48" x2="615.89" y2="897.81"/>
	<line class="st11" x1="565.81" y1="866.11" x2="605.52" y2="886.43"/>
	<line class="st11" x1="550.31" y1="881.15" x2="574.56" y2="893.07"/>
	<path class="st11" d="M600.88,909.07c0.2,0.3,25.23,13.48,25.23,13.48"/>
	<path class="st11" d="M585.67,909.07c0.59,0.74,136.97,70.56,136.97,70.56"/>
	<line class="st11" x1="555.44" y1="923.59" x2="574.56" y2="933.52"/>
	<path class="st11" d="M567.74,936.78c0.89,0.44,30.67,16.3,30.67,16.3"/>
	<line class="st11" x1="599.15" y1="943.59" x2="613.49" y2="951.44"/>
	<line class="st11" x1="680.04" y1="924.33" x2="705.96" y2="937.48"/>
	<line class="st11" x1="552.1" y1="940.46" x2="575.89" y2="951.44"/>
	<line class="st11" x1="600.19" y1="959.15" x2="626.11" y2="970.7"/>
	<path class="st11" d="M636.04,975.74c1.04,0.15,45.19,20.3,45.19,20.3"/>
	<line class="st11" x1="553.43" y1="959.15" x2="694.7" y2="1030.85"/>
	<line class="st11" x1="610.11" y1="975.74" x2="701.96" y2="1022.41"/>
	<line class="st11" x1="554.75" y1="972.95" x2="662.11" y2="1028.48"/>
	<line class="st11" x1="665.81" y1="958.26" x2="729" y2="990.21"/>
	<line class="st11" x1="792.15" y1="1040.37" x2="860.04" y2="1073.67"/>
	<line class="st11" x1="713.37" y1="1028.48" x2="798.56" y2="1070.7"/>
	<line class="st11" x1="877.49" y1="1112.89" x2="835.44" y2="1092.04"/>
	<line class="st11" x1="892.08" y1="1102.47" x2="826.09" y2="1070.7"/>
	<line class="st11" x1="743.3" y1="1033.67" x2="816.78" y2="1070.7"/>
	<line class="st11" x1="706.56" y1="1043.15" x2="816.78" y2="1098.26"/>
	<line class="st11" x1="838.7" y1="1107.74" x2="864.56" y2="1121.32"/>
	<line class="st11" x1="802.26" y1="1080.48" x2="822.41" y2="1092.04"/>
	<line class="st11" x1="679" y1="1040.37" x2="750" y2="1075.15"/>
	<line class="st11" x1="716.93" y1="1075.15" x2="778.26" y2="1105.67"/>
	<line class="st11" x1="559.93" y1="1008.29" x2="580.93" y2="1018.26"/>
	<line class="st11" x1="575.89" y1="1007" x2="599.15" y2="1018.26"/>
	<line class="st11" x1="618.26" y1="1057.02" x2="565.12" y2="1030.85"/>
	<line class="st11" x1="583.38" y1="1075.15" x2="674.85" y2="1121.32"/>
	<line class="st11" x1="636.04" y1="1090.41" x2="774.77" y2="1164.93"/>
	<line class="st11" x1="671.59" y1="1102.47" x2="786.81" y2="1160.96"/>
	<line class="st11" x1="706.56" y1="1104.48" x2="802.26" y2="1154.86"/>
	<line class="st11" x1="676.04" y1="1073.67" x2="781.52" y2="1129.67"/>
	<line class="st11" x1="626.11" y1="1047.59" x2="658.63" y2="1064.78"/>
	<line class="st11" x1="730.85" y1="1086.58" x2="827.98" y2="1142.57"/>
	<line class="st11" x1="798.56" y1="1137.32" x2="816.78" y2="1148.22"/>
	<line class="st11" x1="728.78" y1="1171.99" x2="612.48" y2="1112.89"/>
	<line class="st11" x1="598.41" y1="1097.03" x2="705.4" y2="1151.3"/>
	<line class="st11" x1="877.49" y1="1083.59" x2="899.82" y2="1096.58"/>
	<line class="st11" x1="872.63" y1="1073.07" x2="906.82" y2="1091.07"/>
	<line class="st11" x1="840.63" y1="1048.71" x2="866.11" y2="1059.44"/>
	<line class="st11" x1="856.47" y1="1047.51" x2="900.96" y2="1069.22"/>
	<line class="st11" x1="884.16" y1="1040.37" x2="935.15" y2="1067.17"/>
	<line class="st11" x1="898.96" y1="1032.79" x2="934.11" y2="1050.26"/>
	<line class="st11" x1="906.82" y1="1026.79" x2="952.13" y2="1051.7"/>
	<line class="st11" x1="916.54" y1="1017.37" x2="963.35" y2="1040.99"/>
	<line class="st11" x1="923.4" y1="1006.53" x2="945.52" y2="1017.37"/>
	<line class="st8" x1="926.39" y1="1001.35" x2="976.79" y2="1027.61"/>
	<line class="st8" x1="930.64" y1="992.56" x2="974.11" y2="1016.04"/>
	<line class="st8" x1="954.11" y1="983.89" x2="996.65" y2="1006.53"/>
	<line class="st8" x1="935.54" y1="978.84" x2="947.74" y2="984.78"/>
	<line class="st8" x1="937.62" y1="970.77" x2="961.67" y2="981.81"/>
	<line class="st8" x1="1011.09" y1="989.94" x2="940.36" y2="954.86"/>
	<line class="st8" x1="961.67" y1="972.4" x2="939.25" y2="962.52"/>
	<line class="st8" x1="1028.12" y1="968.24" x2="941.64" y2="925.37"/>
	<line class="st8" x1="1024.58" y1="973" x2="960.48" y2="940.93"/>
	<line class="st8" x1="980.33" y1="960.48" x2="952.37" y2="946.11"/>
	<line class="st8" x1="1013.52" y1="948.04" x2="971" y2="926.85"/>
	<line class="st8" x1="1037.37" y1="954.86" x2="940.36" y2="903.54"/>
	<line class="st8" x1="987.59" y1="900.33" x2="935.22" y2="874.61"/>
	<line class="st8" x1="1025.96" y1="920.63" x2="1007.74" y2="910.85"/>
	<line class="st8" x1="1038.56" y1="918.85" x2="932.64" y2="865.01"/>
	<line class="st8" x1="966.35" y1="871.74" x2="929.76" y2="855.71"/>
	<line class="st8" x1="1058.64" y1="910.28" x2="984.88" y2="871.74"/>
	<line class="st8" x1="1048.93" y1="891.01" x2="936.04" y2="837.22"/>
	<line class="st8" x1="927.3" y1="828.19" x2="917.43" y2="824.37"/>
	<line class="st8" x1="1068.83" y1="874.06" x2="1011.89" y2="844.04"/>
	<line class="st8" x1="984.88" y1="838.56" x2="907.07" y2="803.42"/>
	<line class="st8" x1="970.41" y1="819" x2="925.22" y2="799.15"/>
	<line class="st8" x1="1072.69" y1="852.96" x2="875.94" y2="756.44"/>
	<line class="st8" x1="1073.61" y1="846.16" x2="913.89" y2="768.11"/>
	<line class="st8" x1="1075.75" y1="829.44" x2="1066.78" y2="824.37"/>
	<line class="st8" x1="1074.36" y1="839.45" x2="1051.67" y2="826.91"/>
	<line class="st8" x1="1013.52" y1="796.33" x2="983.22" y2="781.22"/>
	<line class="st8" x1="1068.83" y1="811.22" x2="996.33" y2="775.67"/>
	<line class="st8" x1="1075.69" y1="807.14" x2="1009.44" y2="773.67"/>
	<line class="st8" x1="885.81" y1="744.48" x2="761.74" y2="683.5"/>
	<line class="st8" x1="843.44" y1="726.66" x2="758.5" y2="685.67"/>
	<line class="st8" x1="748.49" y1="692.4" x2="774.11" y2="705.51"/>
	<line class="st8" x1="753.86" y1="688.79" x2="789.22" y2="707"/>
	<line class="st8" x1="777.01" y1="673.3" x2="789.22" y2="679.67"/>
	<line class="st8" x1="785.97" y1="667.34" x2="847.22" y2="698.95"/>
	<line class="st8" x1="804.21" y1="655.26" x2="859.44" y2="683.5"/>
	<line class="st8" x1="798.56" y1="660.11" x2="810.78" y2="667.34"/>
	<line class="st8" x1="892.63" y1="614.26" x2="1031.22" y2="687"/>
	<line class="st8" x1="898.11" y1="626.11" x2="965.49" y2="662.08"/>
	<line class="st8" x1="859.44" y1="622.28" x2="917.44" y2="650.63"/>
	<line class="st8" x1="1025" y1="692.4" x2="993.75" y2="676.48"/>
	<line class="st8" x1="975.89" y1="688.79" x2="847.89" y2="627.44"/>
	<line class="st8" x1="1040.78" y1="720.86" x2="1003.67" y2="701.89"/>
	<line class="st8" x1="1062.12" y1="738.03" x2="978.56" y2="695"/>
	<line class="st8" x1="1000.11" y1="713.99" x2="893.89" y2="658.12"/>
	<line class="st8" x1="913.89" y1="675.22" x2="836.02" y2="634.63"/>
	<line class="st8" x1="928.11" y1="704.11" x2="816.59" y2="647.14"/>
	<line class="st8" x1="844.78" y1="669.38" x2="810.78" y2="650.63"/>
	<line class="st8" x1="850.78" y1="655.26" x2="997.22" y2="726.66"/>
	<line class="st8" x1="928.11" y1="697.89" x2="1022.22" y2="743.44"/>
	<path class="st8" d="M1000.11,718.56c0.22,0.44,66.81,34.16,66.81,34.16"/>
	<line class="st8" x1="863.89" y1="692.4" x2="926.33" y2="721.89"/>
	<line class="st8" x1="893.89" y1="701.89" x2="970.41" y2="736.56"/>
	<line class="st8" x1="937" y1="729.22" x2="975.89" y2="746.31"/>
	<line class="st8" x1="961.93" y1="726.66" x2="1014.56" y2="750.57"/>
	<line class="st8" x1="1020.34" y1="760.56" x2="1074.36" y2="785.22"/>
	<path class="st8" d="M991.44,764.56C991,763.67,915,730.45,915,730.45"/>
	<path class="st8" d="M872.35,726.66c1.09-0.32,48.2,23.92,48.2,23.92"/>
	<line class="st8" x1="903.89" y1="756.44" x2="1014.56" y2="809.07"/>
</g>
</svg>
