<?xml version="1.0" encoding="utf-8"?>
<!-- Generator: Adobe Illustrator 23.0.5, SVG Export Plug-In . SVG Version: 6.00 Build 0)  -->
<svg version="1.1" xmlns="http://www.w3.org/2000/svg" xmlns:xlink="http://www.w3.org/1999/xlink" x="0px" y="0px"
	 viewBox="0 0 1500 1500" style="enable-background:new 0 0 1500 1500;" xml:space="preserve">
<style type="text/css">
	.st0{fill:url(#SVGID_1_);}
	.st1{fill:url(#SVGID_2_);}
	.st2{fill:url(#SVGID_3_);}
	.st3{fill:url(#SVGID_4_);}
	.st4{fill:url(#SVGID_5_);}
	.st5{fill:url(#SVGID_6_);}
	.st6{fill:#FFFFFF;}
	.st7{fill:url(#SVGID_7_);}
	.st8{fill:url(#SVGID_8_);}
	.st9{fill:url(#SVGID_9_);}
	.st10{fill:url(#SVGID_10_);}
	.st11{fill:url(#SVGID_11_);}
	.st12{fill:url(#SVGID_12_);}
	.st13{fill:url(#SVGID_13_);}
	.st14{fill:url(#SVGID_14_);}
	.st15{fill:url(#SVGID_15_);}
	.st16{fill:url(#SVGID_16_);}
	.st17{fill:url(#SVGID_17_);}
	.st18{fill:url(#SVGID_18_);}
	.st19{fill:url(#SVGID_19_);}
	.st20{fill:url(#SVGID_20_);}
	.st21{fill:url(#SVGID_21_);}
	.st22{fill:url(#SVGID_22_);}
	.st23{fill:url(#SVGID_23_);}
	.st24{fill:none;stroke:#0E70C4;stroke-width:101;stroke-linecap:round;stroke-miterlimit:10;}
	.st25{fill:none;stroke:#FFFFFF;stroke-width:101;stroke-linecap:round;stroke-miterlimit:10;}
	.st26{fill:#0E70C4;}
</style>
<g id="Слой_2">
	<linearGradient id="SVGID_1_" gradientUnits="userSpaceOnUse" x1="68.3333" y1="750" x2="1431.6666" y2="750">
		<stop  offset="0" style="stop-color:#1F9CF2"/>
		<stop  offset="0.1931" style="stop-color:#41AEF7"/>
		<stop  offset="0.3933" style="stop-color:#5DBDFA"/>
		<stop  offset="0.595" style="stop-color:#71C8FD"/>
		<stop  offset="0.797" style="stop-color:#7DCEFE"/>
		<stop  offset="1" style="stop-color:#81D0FF"/>
	</linearGradient>
	<circle class="st0" cx="750" cy="750" r="681.67"/>
	<linearGradient id="SVGID_2_" gradientUnits="userSpaceOnUse" x1="162.5556" y1="750" x2="1337.4445" y2="750">
		<stop  offset="0" style="stop-color:#81D0FF"/>
		<stop  offset="0.203" style="stop-color:#7DCEFE"/>
		<stop  offset="0.405" style="stop-color:#71C8FD"/>
		<stop  offset="0.6067" style="stop-color:#5DBDFA"/>
		<stop  offset="0.8069" style="stop-color:#41AEF7"/>
		<stop  offset="1" style="stop-color:#1F9CF2"/>
	</linearGradient>
	<circle class="st1" cx="750" cy="750" r="587.44"/>
</g>
<g id="Слой_4">
	<linearGradient id="SVGID_3_" gradientUnits="userSpaceOnUse" x1="487.7778" y1="424.5555" x2="593.1111" y2="424.5555">
		<stop  offset="0" style="stop-color:#FFFFFF"/>
		<stop  offset="1" style="stop-color:#94EAFC"/>
	</linearGradient>
	<path class="st2" d="M540.44,371.89c-29.09,0-52.67,23.58-52.67,52.67s23.58,52.67,52.67,52.67c29.09,0,52.67-23.58,52.67-52.67
		S569.53,371.89,540.44,371.89z M540.44,472.11c-26.26,0-47.56-21.29-47.56-47.56S514.18,377,540.44,377S588,398.29,588,424.56
		S566.71,472.11,540.44,472.11z"/>
	<linearGradient id="SVGID_4_" gradientUnits="userSpaceOnUse" x1="766.2037" y1="355.9934" x2="660.8704" y2="355.9934">
		<stop  offset="0" style="stop-color:#FFFFFF"/>
		<stop  offset="1" style="stop-color:#94EAFC"/>
	</linearGradient>
	<path class="st3" d="M713.54,303.33c-29.09,0-52.67,23.58-52.67,52.67s23.58,52.67,52.67,52.67c29.09,0,52.67-23.58,52.67-52.67
		S742.62,303.33,713.54,303.33z M713.54,403.55c-26.26,0-47.56-21.29-47.56-47.56s21.29-47.56,47.56-47.56s47.56,21.29,47.56,47.56
		S739.8,403.55,713.54,403.55z"/>
	<linearGradient id="SVGID_5_" gradientUnits="userSpaceOnUse" x1="382.4445" y1="612.0984" x2="487.7778" y2="612.0984">
		<stop  offset="0" style="stop-color:#94EAFC"/>
		<stop  offset="1" style="stop-color:#FFFFFF"/>
	</linearGradient>
	<path class="st4" d="M435.11,559.43c-29.09,0-52.67,23.58-52.67,52.67s23.58,52.67,52.67,52.67c29.09,0,52.67-23.58,52.67-52.67
		S464.2,559.43,435.11,559.43z M435.11,659.65c-26.26,0-47.56-21.29-47.56-47.56s21.29-47.56,47.56-47.56s47.56,21.29,47.56,47.56
		S461.38,659.65,435.11,659.65z"/>
	<linearGradient id="SVGID_6_" gradientUnits="userSpaceOnUse" x1="641.7879" y1="635.1697" x2="747.1212" y2="635.1697">
		<stop  offset="0" style="stop-color:#94EAFC"/>
		<stop  offset="1" style="stop-color:#FFFFFF"/>
	</linearGradient>
	<path class="st5" d="M694.45,582.5c-29.09,0-52.67,23.58-52.67,52.67s23.58,52.67,52.67,52.67c29.09,0,52.67-23.58,52.67-52.67
		S723.54,582.5,694.45,582.5z M694.45,682.73c-26.26,0-47.56-21.29-47.56-47.56s21.29-47.56,47.56-47.56s47.56,21.29,47.56,47.56
		S720.72,682.73,694.45,682.73z"/>
	<path class="st6" d="M661.96,798.17c-29.09,0-52.67,23.58-52.67,52.67s23.58,52.67,52.67,52.67c29.09,0,52.67-23.58,52.67-52.67
		S691.05,798.17,661.96,798.17z M661.96,898.39c-26.26,0-47.56-21.29-47.56-47.56s21.29-47.56,47.56-47.56s47.56,21.29,47.56,47.56
		S688.23,898.39,661.96,898.39z"/>
	<linearGradient id="SVGID_7_" gradientUnits="userSpaceOnUse" x1="515.031" y1="1122" x2="620.3643" y2="1122">
		<stop  offset="0" style="stop-color:#94EAFC"/>
		<stop  offset="1" style="stop-color:#FFFFFF"/>
	</linearGradient>
	<path class="st7" d="M567.7,1069.33c-29.09,0-52.67,23.58-52.67,52.67c0,29.09,23.58,52.67,52.67,52.67
		c29.09,0,52.67-23.58,52.67-52.67C620.36,1092.91,596.78,1069.33,567.7,1069.33z M567.7,1169.56c-26.26,0-47.56-21.29-47.56-47.56
		c0-26.26,21.29-47.56,47.56-47.56s47.56,21.29,47.56,47.56C615.25,1148.26,593.96,1169.56,567.7,1169.56z"/>
	<linearGradient id="SVGID_8_" gradientUnits="userSpaceOnUse" x1="775.3492" y1="1212.928" x2="880.6825" y2="1212.928">
		<stop  offset="0" style="stop-color:#FFFFFF"/>
		<stop  offset="1" style="stop-color:#94EAFC"/>
	</linearGradient>
	<path class="st8" d="M828.02,1160.26c-29.09,0-52.67,23.58-52.67,52.67c0,29.09,23.58,52.67,52.67,52.67
		c29.09,0,52.67-23.58,52.67-52.67C880.68,1183.84,857.1,1160.26,828.02,1160.26z M828.02,1260.48c-26.26,0-47.56-21.29-47.56-47.56
		c0-26.26,21.29-47.56,47.56-47.56s47.56,21.29,47.56,47.56C875.57,1239.19,854.28,1260.48,828.02,1260.48z"/>
	<linearGradient id="SVGID_9_" gradientUnits="userSpaceOnUse" x1="1169.7722" y1="638.2194" x2="1275.1056" y2="638.2194">
		<stop  offset="0" style="stop-color:#6CE2FB"/>
		<stop  offset="1" style="stop-color:#FFFFFF"/>
	</linearGradient>
	<path class="st9" d="M1222.44,585.55c-29.09,0-52.67,23.58-52.67,52.67s23.58,52.67,52.67,52.67c29.09,0,52.67-23.58,52.67-52.67
		S1251.53,585.55,1222.44,585.55z M1222.44,685.77c-26.26,0-47.56-21.29-47.56-47.56s21.29-47.56,47.56-47.56
		c26.26,0,47.56,21.29,47.56,47.56S1248.7,685.77,1222.44,685.77z"/>
	<linearGradient id="SVGID_10_" gradientUnits="userSpaceOnUse" x1="908.1989" y1="337.9521" x2="1013.5322" y2="337.9521">
		<stop  offset="0" style="stop-color:#FFFFFF"/>
		<stop  offset="1" style="stop-color:#94EAFC"/>
	</linearGradient>
	<path class="st10" d="M960.87,285.29c-29.09,0-52.67,23.58-52.67,52.67s23.58,52.67,52.67,52.67c29.09,0,52.67-23.58,52.67-52.67
		S989.95,285.29,960.87,285.29z M960.87,385.51c-26.26,0-47.56-21.29-47.56-47.56s21.29-47.56,47.56-47.56s47.56,21.29,47.56,47.56
		S987.13,385.51,960.87,385.51z"/>
	<linearGradient id="SVGID_11_" gradientUnits="userSpaceOnUse" x1="406.6667" y1="944.7993" x2="512" y2="944.7993">
		<stop  offset="0" style="stop-color:#6CE2FB"/>
		<stop  offset="1" style="stop-color:#FFFFFF"/>
	</linearGradient>
	<path class="st11" d="M459.33,892.13c-29.09,0-52.67,23.58-52.67,52.67s23.58,52.67,52.67,52.67c29.09,0,52.67-23.58,52.67-52.67
		S488.42,892.13,459.33,892.13z M459.33,992.35c-26.26,0-47.56-21.29-47.56-47.56s21.29-47.56,47.56-47.56s47.56,21.29,47.56,47.56
		S485.6,992.35,459.33,992.35z"/>
	<linearGradient id="SVGID_12_" gradientUnits="userSpaceOnUse" x1="679" y1="310.1111" x2="679" y2="69.8423">
		<stop  offset="0" style="stop-color:#A1F4FB"/>
		<stop  offset="1" style="stop-color:#FFFFFF"/>
	</linearGradient>
	<polygon class="st12" points="704.32,69.84 647.44,213.22 689.22,310.11 693.67,307.89 653.34,212.58 710.56,69.84 	"/>
	<linearGradient id="SVGID_13_" gradientUnits="userSpaceOnUse" x1="353.3844" y1="371.7698" x2="375.2143" y2="333.9593">
		<stop  offset="0" style="stop-color:#6CE2FB"/>
		<stop  offset="0.0487" style="stop-color:#7BE5FB"/>
		<stop  offset="0.1936" style="stop-color:#A3EDFD"/>
		<stop  offset="0.3429" style="stop-color:#C5F3FD"/>
		<stop  offset="0.4954" style="stop-color:#DEF9FE"/>
		<stop  offset="0.6525" style="stop-color:#F1FCFF"/>
		<stop  offset="0.8167" style="stop-color:#FBFEFF"/>
		<stop  offset="1" style="stop-color:#FFFFFF"/>
	</linearGradient>
	<polygon class="st13" points="239.12,298.69 492.89,401.9 490.57,407.58 234.98,303.41 	"/>
	<linearGradient id="SVGID_14_" gradientUnits="userSpaceOnUse" x1="77.0816" y1="594.2719" x2="387.5556" y2="594.2719">
		<stop  offset="0" style="stop-color:#6CE2FB"/>
		<stop  offset="0.0305" style="stop-color:#75E4FB"/>
		<stop  offset="0.5208" style="stop-color:#FFFFFF"/>
		<stop  offset="1" style="stop-color:#86E7FC"/>
	</linearGradient>
	<polygon class="st14" points="387.56,592.48 277.22,548.04 78.38,632.77 77.08,640.51 277.52,554.26 385.96,597.81 	"/>
	<linearGradient id="SVGID_15_" gradientUnits="userSpaceOnUse" x1="81.099" y1="818.032" x2="403" y2="818.032">
		<stop  offset="0" style="stop-color:#6CE2FB"/>
		<stop  offset="0.0305" style="stop-color:#75E4FB"/>
		<stop  offset="0.5208" style="stop-color:#FFFFFF"/>
		<stop  offset="1" style="stop-color:#86E7FC"/>
	</linearGradient>
	<polygon class="st15" points="81.1,881.96 403,746.67 403,754.56 82.6,889.4 	"/>
	<polygon class="st6" points="506.89,778.56 620.36,824.33 615.25,829.22 502.56,784.33 	"/>
	<linearGradient id="SVGID_16_" gradientUnits="userSpaceOnUse" x1="179.7585" y1="1042.9598" x2="411.7778" y2="1042.9598">
		<stop  offset="0" style="stop-color:#6CE2FB"/>
		<stop  offset="0.0668" style="stop-color:#6FE3FB"/>
		<stop  offset="0.1128" style="stop-color:#78E4FB"/>
		<stop  offset="0.1525" style="stop-color:#87E7FC"/>
		<stop  offset="0.1887" style="stop-color:#9DECFC"/>
		<stop  offset="0.2224" style="stop-color:#B9F1FD"/>
		<stop  offset="0.2539" style="stop-color:#DBF8FE"/>
		<stop  offset="0.2813" style="stop-color:#FFFFFF"/>
		<stop  offset="0.297" style="stop-color:#E2F9FE"/>
		<stop  offset="0.318" style="stop-color:#C3F3FD"/>
		<stop  offset="0.3419" style="stop-color:#A7EEFD"/>
		<stop  offset="0.3689" style="stop-color:#91E9FC"/>
		<stop  offset="0.4005" style="stop-color:#80E6FC"/>
		<stop  offset="0.4394" style="stop-color:#75E4FB"/>
		<stop  offset="0.4941" style="stop-color:#6EE2FB"/>
		<stop  offset="0.6458" style="stop-color:#6CE2FB"/>
	</linearGradient>
	<polygon class="st16" points="272.49,1092.24 183.12,1128.7 179.76,1123.63 268.63,1086.79 297.67,1004.78 411.78,957.22 
		411.78,963.89 302.11,1010.56 	"/>
	<linearGradient id="SVGID_17_" gradientUnits="userSpaceOnUse" x1="375.5302" y1="1232.1747" x2="523.1481" y2="1232.1747">
		<stop  offset="0" style="stop-color:#6CE2FB"/>
		<stop  offset="0.0668" style="stop-color:#6FE3FB"/>
		<stop  offset="0.1128" style="stop-color:#78E4FB"/>
		<stop  offset="0.1525" style="stop-color:#87E7FC"/>
		<stop  offset="0.1887" style="stop-color:#9DECFC"/>
		<stop  offset="0.2224" style="stop-color:#B9F1FD"/>
		<stop  offset="0.2539" style="stop-color:#DBF8FE"/>
		<stop  offset="0.2813" style="stop-color:#FFFFFF"/>
		<stop  offset="0.297" style="stop-color:#E2F9FE"/>
		<stop  offset="0.318" style="stop-color:#C3F3FD"/>
		<stop  offset="0.3419" style="stop-color:#A7EEFD"/>
		<stop  offset="0.3689" style="stop-color:#91E9FC"/>
		<stop  offset="0.4005" style="stop-color:#80E6FC"/>
		<stop  offset="0.4394" style="stop-color:#75E4FB"/>
		<stop  offset="0.4941" style="stop-color:#6EE2FB"/>
		<stop  offset="0.6458" style="stop-color:#6CE2FB"/>
	</linearGradient>
	<polygon class="st17" points="520.14,1141.52 426.56,1185.96 375.53,1319.69 380.35,1322.83 431,1190.7 523.15,1146.26 	"/>
	<linearGradient id="SVGID_18_" gradientUnits="userSpaceOnUse" x1="578.4929" y1="1335.0459" x2="644.9259" y2="1335.0459">
		<stop  offset="0" style="stop-color:#6CE2FB"/>
		<stop  offset="0.0487" style="stop-color:#7BE5FB"/>
		<stop  offset="0.1936" style="stop-color:#A3EDFD"/>
		<stop  offset="0.3429" style="stop-color:#C5F3FD"/>
		<stop  offset="0.4954" style="stop-color:#DEF9FE"/>
		<stop  offset="0.6525" style="stop-color:#F1FCFF"/>
		<stop  offset="0.8167" style="stop-color:#FBFEFF"/>
		<stop  offset="1" style="stop-color:#FFFFFF"/>
	</linearGradient>
	<polygon class="st18" points="638.7,1258.56 578.49,1409.91 584.9,1411.54 644.93,1260.48 	"/>
	<linearGradient id="SVGID_19_" gradientUnits="userSpaceOnUse" x1="873.6667" y1="1178.686" x2="1239.7968" y2="1178.686">
		<stop  offset="0" style="stop-color:#6CE2FB"/>
		<stop  offset="0.1799" style="stop-color:#9DECFC"/>
		<stop  offset="0.5104" style="stop-color:#FFFFFF"/>
		<stop  offset="1" style="stop-color:#6CE2FB"/>
	</linearGradient>
	<polygon class="st19" points="1239.8,1224.1 1009.67,1128.19 873.67,1186.65 875.57,1193.37 1009.96,1135.59 1234.82,1229.19 	"/>
	<linearGradient id="SVGID_20_" gradientUnits="userSpaceOnUse" x1="1071" y1="986.2952" x2="1365.0586" y2="986.2952">
		<stop  offset="0" style="stop-color:#6CE2FB"/>
		<stop  offset="0.0487" style="stop-color:#7BE5FB"/>
		<stop  offset="0.1936" style="stop-color:#A3EDFD"/>
		<stop  offset="0.3429" style="stop-color:#C5F3FD"/>
		<stop  offset="0.4954" style="stop-color:#DEF9FE"/>
		<stop  offset="0.6525" style="stop-color:#F1FCFF"/>
		<stop  offset="0.8167" style="stop-color:#FBFEFF"/>
		<stop  offset="1" style="stop-color:#FFFFFF"/>
	</linearGradient>
	<polygon class="st20" points="1365.06,1044.25 1073.67,922.26 1071,928.48 1362.11,1050.33 	"/>
	<linearGradient id="SVGID_21_" gradientUnits="userSpaceOnUse" x1="1022.3436" y1="764.0785" x2="1413.826" y2="764.0785">
		<stop  offset="0" style="stop-color:#FFFFFF"/>
		<stop  offset="0.1833" style="stop-color:#FBFEFF"/>
		<stop  offset="0.3475" style="stop-color:#F1FCFF"/>
		<stop  offset="0.5046" style="stop-color:#DEF9FE"/>
		<stop  offset="0.6571" style="stop-color:#C5F3FD"/>
		<stop  offset="0.8064" style="stop-color:#A3EDFD"/>
		<stop  offset="0.9513" style="stop-color:#7BE5FB"/>
		<stop  offset="1" style="stop-color:#6CE2FB"/>
	</linearGradient>
	<polygon class="st21" points="1413.83,905.6 1083.44,769.67 1028.27,616.48 1022.34,619.15 1079,775.3 1412.38,911.68 	"/>
	<linearGradient id="SVGID_22_" gradientUnits="userSpaceOnUse" x1="1267.4445" y1="681.8148" x2="1428.8186" y2="681.8148">
		<stop  offset="0" style="stop-color:#A1F4FB"/>
		<stop  offset="1" style="stop-color:#6CE2FB"/>
	</linearGradient>
	<polygon class="st22" points="1269.99,655.59 1381.81,701.22 1428.16,680.47 1428.82,687.28 1382.11,708.04 1267.44,661.22 	"/>
	<linearGradient id="SVGID_23_" gradientUnits="userSpaceOnUse" x1="1008.4211" y1="365.2947" x2="1289.4871" y2="365.2947">
		<stop  offset="0" style="stop-color:#A1F4FB"/>
		<stop  offset="1" style="stop-color:#6CE2FB"/>
	</linearGradient>
	<polygon class="st23" points="1285.63,328.33 1122.85,395.15 1010.26,349.81 1008.42,356.63 1122.56,402.26 1289.49,333.27 	"/>
	<polygon class="st6" points="848.33,635.17 951,870.56 974.56,881.22 971,886.11 946.11,876.78 843.44,640.33 	"/>
</g>
<g id="Слой_3">
	<path class="st24" d="M1013.78,906.49c-53.89,88.07-150.97,146.85-261.78,146.85c-169.37,0-306.67-137.3-306.67-306.67
		S582.63,440,752,440c111.15,0,210.48,56.13,264.27,144.65"/>
	<line class="st24" x1="850.78" y1="285.22" x2="655.22" y2="1211.44"/>
	<path class="st25" d="M1027.78,922.49c-53.89,88.07-150.97,146.85-261.78,146.85c-169.37,0-306.67-137.3-306.67-306.67
		S596.63,456,766,456c111.15,0,208.48,59.13,262.27,147.65"/>
	<line class="st25" x1="864.78" y1="301.22" x2="669.22" y2="1227.44"/>
	<polygon class="st6" points="890.41,414.41 903.59,436.78 883,431.89 	"/>
	<polygon class="st6" points="749,497.67 768.56,531.22 777.89,499.44 	"/>
	<polygon class="st6" points="767.59,992.48 789.52,1024.33 761.37,1023.59 	"/>
	<polygon class="st6" points="627.15,1085.81 644.63,1117.22 650.26,1095.59 	"/>
	<rect x="1105.84" y="617.53" class="st26" width="65.65" height="259.69"/>
	
		<rect x="1106.89" y="624.17" transform="matrix(-1.836970e-16 1 -1 -1.836970e-16 1888.1948 -396.003)" class="st26" width="70.42" height="243.86"/>
	<rect x="1121.55" y="624.86" class="st6" width="65.65" height="252.36"/>
	
		<rect x="1122.83" y="631.27" transform="matrix(-1.836970e-16 1 -1 -1.836970e-16 1904.1417 -404.6167)" class="st6" width="63.09" height="236.99"/>
</g>
</svg>
