<?xml version="1.0" encoding="utf-8"?>
<!-- Generator: Adobe Illustrator 23.0.5, SVG Export Plug-In . SVG Version: 6.00 Build 0)  -->
<svg version="1.1" id="Слой_2" xmlns="http://www.w3.org/2000/svg" xmlns:xlink="http://www.w3.org/1999/xlink" x="0px" y="0px"
	 viewBox="0 0 1500 1500" style="enable-background:new 0 0 1500 1500;" xml:space="preserve">
<style type="text/css">
	.st0{fill:#20508E;}
	.st1{fill:#FFFFFF;}
</style>
<circle class="st0" cx="768.86" cy="732.14" r="686.21"/>
<path class="st1" d="M1061.52,529.96C1007.59,441.67,912.33,403,912.33,403V263.89c0-7.85-6.37-14.22-14.22-14.22h-72.15
	c-7.85,0-14.22,6.37-14.22,14.22v108.44c0,0-12.74-1.78-38.52-2.67c-25.78-0.89-56.89-1.33-56.89-1.33V263.89
	c0-7.85-6.37-14.22-14.22-14.22h-75.56c-7.85,0-14.22,6.37-14.22,14.22v104.44H497.22c-7.85,0-14.22,6.37-14.22,14.22v89.33
	c0,7.85,6.37,14.22,14.22,14.22h70.67v484.44h-70.67c-7.85,0-14.22,6.37-14.22,14.22v87.11c0,7.85,6.37,14.22,14.22,14.22h116.89
	v113.48c0,7.85,6.37,14.22,14.22,14.22h73.48c7.85,0,14.22-6.37,14.22-14.22v-113.48c0,0,15.7,0,48.59-0.59
	c32.89-0.59,47.41-3.85,47.41-3.85v117.93c0,7.85,6.37,14.22,14.22,14.22h75.26c7.85,0,14.22-6.37,14.22-14.22v-146.96
	c0,0,45.04-18.37,90.07-61.04c45.04-42.67,101.93-115.56,111.41-211.56S1115.44,618.26,1061.52,529.96z M1007,726.56
	c0,134.27-108.84,243.11-243.11,243.11h-72.44V483.44h72.44C898.16,483.44,1007,592.29,1007,726.56L1007,726.56z"/>
</svg>
